<svg width="132" height="24" viewBox="0 0 132 24" fill="none" xmlns="http://www.w3.org/2000/svg">
<g clip-path="url(#clip0_1855_1315)">
<path d="M132 4.5585C131.107 4.95 130.156 5.2095 129.165 5.3355C130.185 4.7265 130.964 3.7695 131.33 2.616C130.379 3.183 129.328 3.5835 128.209 3.807C127.306 2.8455 126.019 2.25 124.615 2.25C121.891 2.25 119.698 4.461 119.698 7.1715C119.698 7.5615 119.731 7.9365 119.812 8.2935C115.722 8.094 112.103 6.1335 109.671 3.147C109.246 3.8835 108.998 4.7265 108.998 5.634C108.998 7.338 109.875 8.8485 111.183 9.723C110.392 9.708 109.617 9.4785 108.96 9.117V9.171C108.96 11.562 110.665 13.548 112.902 14.0055C112.501 14.115 112.065 14.1675 111.612 14.1675C111.297 14.1675 110.979 14.1495 110.68 14.0835C111.318 16.032 113.127 17.4645 115.278 17.511C113.604 18.8205 111.479 19.6095 109.178 19.6095C108.774 19.6095 108.387 19.5915 108 19.542C110.179 20.9475 112.763 21.75 115.548 21.75C124.602 21.75 129.552 14.25 129.552 7.749C129.552 7.5315 129.544 7.3215 129.534 7.113C130.51 6.42 131.331 5.5545 132 4.5585Z" fill="#FAFAFA"/>
</g>
<g clip-path="url(#clip1_1855_1315)">
<path d="M12.003 0H11.997C5.3805 0 0 5.382 0 12C0 14.625 0.846 17.058 2.2845 19.0335L0.789 23.4915L5.4015 22.017C7.299 23.274 9.5625 24 12.003 24C18.6195 24 24 18.6165 24 12C24 5.3835 18.6195 0 12.003 0Z" fill="#FAFAFA"/>
<path d="M18.9858 16.9455C18.6963 17.763 17.5473 18.441 16.6308 18.639C16.0038 18.7725 15.1848 18.879 12.4278 17.736C8.90132 16.275 6.63032 12.6915 6.45332 12.459C6.28382 12.2265 5.02832 10.5615 5.02832 8.8395C5.02832 7.1175 5.90282 6.279 6.25532 5.919C6.54482 5.6235 7.02332 5.48849 7.48232 5.48849C7.63082 5.48849 7.76432 5.49599 7.88432 5.50199C8.23682 5.51699 8.41382 5.538 8.64632 6.0945C8.93582 6.792 9.64082 8.514 9.72482 8.691C9.81032 8.868 9.89582 9.108 9.77582 9.3405C9.66332 9.5805 9.56432 9.68699 9.38732 9.89099C9.21032 10.095 9.04232 10.251 8.86532 10.47C8.70332 10.6605 8.52032 10.8645 8.72432 11.217C8.92832 11.562 9.63332 12.7125 10.6713 13.6365C12.0108 14.829 13.0968 15.21 13.4853 15.372C13.7748 15.492 14.1198 15.4635 14.3313 15.2385C14.5998 14.949 14.9313 14.469 15.2688 13.9965C15.5088 13.6575 15.8118 13.6155 16.1298 13.7355C16.4538 13.848 18.1683 14.6955 18.5208 14.871C18.8733 15.048 19.1058 15.132 19.1913 15.2805C19.2753 15.429 19.2753 16.1265 18.9858 16.9455Z" fill="#39AC11"/>
</g>
<g clip-path="url(#clip2_1855_1315)">
<path d="M71.9996 0H59.9999C56.7002 0 54 2.70023 54 5.99985V18.0001C54 21.2989 56.7002 24 59.9999 24H71.9996C75.2992 24 77.9994 21.2989 77.9994 18.0001V5.99985C77.9994 2.70023 75.2992 0 71.9996 0ZM75.9994 18.0001C75.9994 20.2051 74.2057 22 71.9996 22H59.9999C57.7946 22 56 20.2051 56 18.0001V5.99985C56 3.79432 57.7946 2.00005 59.9999 2.00005H71.9996C74.2057 2.00005 75.9994 3.79432 75.9994 5.99985V18.0001Z" fill="#FAFAFA"/>
<path d="M72.5009 6.99973C73.3293 6.99973 74.0009 6.32817 74.0009 5.49976C74.0009 4.67136 73.3293 3.9998 72.5009 3.9998C71.6725 3.9998 71.001 4.67136 71.001 5.49976C71.001 6.32817 71.6725 6.99973 72.5009 6.99973Z" fill="#FAFAFA"/>
<path d="M65.9999 5.99985C62.6855 5.99985 60 8.68566 60 11.9997C60 15.3125 62.6855 18.0001 65.9999 18.0001C69.3132 18.0001 71.9997 15.3125 71.9997 11.9997C71.9997 8.68566 69.3132 5.99985 65.9999 5.99985ZM65.9999 16.0001C63.791 16.0001 62 14.2092 62 11.9997C62 9.79024 63.791 7.9999 65.9999 7.9999C68.2087 7.9999 69.9997 9.79024 69.9997 11.9997C69.9997 14.2092 68.2087 16.0001 65.9999 16.0001Z" fill="#FAFAFA"/>
</g>
<defs>
<clipPath id="clip0_1855_1315">
<rect width="24" height="24" fill="white" transform="translate(108)"/>
</clipPath>
<clipPath id="clip1_1855_1315">
<rect width="24" height="24" fill="white"/>
</clipPath>
<clipPath id="clip2_1855_1315">
<rect width="24" height="24" fill="white" transform="translate(54)"/>
</clipPath>
</defs>
</svg>
