<svg width="63" height="62" viewBox="0 0 63 62" fill="none" xmlns="http://www.w3.org/2000/svg">
<path d="M48.3803 33.3588L48.3803 28.2071L35.7106 28.2071L35.7106 0.485246L63 0.485249L63 28.2071L62.9993 28.2071L62.9993 33.3588C62.9993 43.8201 60.0365 51.588 54.1926 56.4483C50.15 59.8103 45.0329 61.5149 38.9832 61.5149L38.9832 46.6645C42.2672 46.6645 48.3803 46.6645 48.3803 33.3588ZM3.27221 46.6645L3.27221 61.5149C9.3216 61.5149 14.4387 59.8103 18.4813 56.4483C24.3252 51.588 27.2884 43.8197 27.2884 33.3588L27.2884 0.485245L1.52068e-06 0.485243L-9.02839e-07 28.2071L12.6697 28.2071L12.6697 33.3588C12.6693 46.6645 6.55629 46.6645 3.27221 46.6645Z" fill="#ED4445"/>
</svg>
