<svg width="30" height="30" viewBox="0 0 30 30" fill="none" xmlns="http://www.w3.org/2000/svg">
<path d="M29.5946 0H13.4546C13.3471 1.5536e-05 13.244 0.0427333 13.168 0.118759C13.092 0.194785 13.0493 0.297893 13.0492 0.40541V9.16119H9.98889C9.88137 9.16121 9.77826 9.20393 9.70224 9.27995C9.62621 9.35598 9.58349 9.45909 9.58348 9.5666V13.4167H8.09461V10.0823C8.09461 8.27643 6.68256 6.79811 4.90506 6.6835C6.12451 6.21439 7.01537 4.77363 7.01537 3.07213C7.01543 1.17715 5.87813 0 4.04748 0C2.21654 0 1.07924 1.17715 1.07924 3.07219C1.07924 4.77369 1.9701 6.21445 3.18967 6.68355C1.41217 6.79805 0 8.27648 0 10.0823V20.5983C1.5536e-05 20.7059 0.0427333 20.809 0.118759 20.885C0.194785 20.961 0.297893 21.0037 0.40541 21.0037H1.50234V29.5946C1.50234 29.8184 1.68393 30 1.90775 30C2.13158 30 2.31316 29.8184 2.31316 29.5946V21.0037H5.78156V29.5946C5.78156 29.8184 5.96314 30 6.18697 30C6.4108 30 6.59238 29.8184 6.59238 29.5946V21.0037H7.68932C7.79683 21.0037 7.89994 20.961 7.97597 20.885C8.05199 20.809 8.09471 20.7059 8.09473 20.5983V16.7106H9.58359V19.4706C9.58361 19.5781 9.62633 19.6812 9.70235 19.7572C9.77838 19.8333 9.88149 19.876 9.989 19.876H13.0494V29.5946C13.0494 29.7022 13.0921 29.8053 13.1681 29.8813C13.2441 29.9573 13.3472 30 13.4548 30.0001H29.5947C29.7022 30 29.8053 29.9573 29.8814 29.8813C29.9574 29.8053 30.0001 29.7022 30.0001 29.5946V0.40541C30.0001 0.297883 29.9573 0.194774 29.8813 0.118752C29.8052 0.0427295 29.7021 1.55241e-05 29.5946 0ZM13.8601 9.97201H16.0217V11.6595L15.1275 11.3205C15.0373 11.2864 14.9378 11.2855 14.847 11.3179L13.8601 11.6711V9.97201H13.8601ZM5.50488 15.8998C5.07521 15.8998 4.71123 15.6065 4.61988 15.1867L3.56994 10.3599C3.47203 9.90926 3.75891 9.46277 4.20943 9.36486C4.65867 9.26695 5.10627 9.55383 5.20418 10.0044L5.91604 13.2774C6.03797 13.8368 6.52254 14.2276 7.09506 14.2276H12.1336C12.5947 14.2276 12.9697 14.6026 12.9697 15.0636C12.9697 15.5246 12.5947 15.8997 12.1336 15.8997L5.50488 15.8998ZM1.89006 3.07219C1.89006 1.10455 3.2417 0.810762 4.04748 0.810762C4.85303 0.810762 6.20461 1.10455 6.20461 3.07219C6.20461 4.70584 5.23699 6.03486 4.04748 6.03486C2.85797 6.03486 1.89006 4.70584 1.89006 3.07219ZM7.28385 20.1929H0.81082V10.0823C0.81082 8.6492 1.97689 7.48324 3.41004 7.48324H4.68457C6.11771 7.48324 7.28379 8.6492 7.28379 10.0823V13.4168H7.09506C6.90422 13.4168 6.74906 13.2916 6.7084 13.1051L5.99654 9.83203C5.80336 8.94481 4.92393 8.37879 4.03711 8.57256H4.03682C3.15 8.76562 2.58492 9.64453 2.77758 10.5322L3.82752 15.359C4.00066 16.1548 4.69031 16.7106 5.50482 16.7106H7.28373V20.1929H7.28385ZM10.3943 16.7106H12.1337C13.0419 16.7106 13.7806 15.9718 13.7806 15.0636C13.7806 14.1555 13.0419 13.4168 12.1337 13.4168H10.3943V9.97201H13.0492V12.2467C13.0492 12.3786 13.1134 12.5022 13.2213 12.5783C13.2744 12.6158 13.3358 12.6399 13.4002 12.6487C13.4646 12.6574 13.5302 12.6505 13.5913 12.6284L14.9797 12.1315L16.2833 12.6258C16.4037 12.6714 16.5489 12.6551 16.6575 12.5804C16.7115 12.5431 16.7556 12.4932 16.7861 12.4351C16.8165 12.377 16.8325 12.3124 16.8325 12.2467V9.97201H19.4874V19.0651H10.3943V16.7106ZM29.1892 29.1892H13.8601V19.8759H19.8928C20.0003 19.8759 20.1034 19.8332 20.1795 19.7572C20.2555 19.6812 20.2982 19.578 20.2982 19.4705V9.5666C20.2982 9.45909 20.2555 9.35598 20.1795 9.27995C20.1034 9.20393 20.0003 9.16121 19.8928 9.16119H13.8601V0.81082H29.1892V29.1892ZM23.1672 15.0372H24.9247V18.4055C24.9247 18.513 24.9675 18.6162 25.0435 18.6922C25.1195 18.7682 25.2226 18.8109 25.3301 18.8109H27.8842C27.9918 18.8109 28.0949 18.7682 28.1709 18.6922C28.2469 18.6162 28.2896 18.513 28.2896 18.4055V11.5946C28.2896 11.4871 28.2469 11.384 28.1709 11.3079C28.0949 11.2319 27.9918 11.1892 27.8842 11.1892H25.3301C25.2226 11.1892 25.1195 11.2319 25.0435 11.3079C24.9675 11.384 24.9247 11.4871 24.9247 11.5946V12.892H23.1672C22.5757 12.892 22.0946 13.3733 22.0946 13.9648C22.0946 14.556 22.5758 15.0372 23.1672 15.0372ZM25.7356 12H27.4789V18.0002H25.7356V15.0372H26.0207C26.6122 15.0372 27.0933 14.5559 27.0933 13.9644C27.0933 13.3731 26.6121 12.8919 26.0207 12.8919H25.7356V12ZM23.1672 13.7027H26.0206C26.1626 13.7027 26.2824 13.8227 26.2824 13.9647C26.2824 14.1066 26.1626 14.2264 26.0206 14.2264H23.1672C23.0252 14.2264 22.9054 14.1064 22.9054 13.9644C22.9054 13.8226 23.0252 13.7027 23.1672 13.7027Z" fill="#ED4445"/>
</svg>
