<svg width="28" height="28" viewBox="0 0 28 28" fill="none" xmlns="http://www.w3.org/2000/svg">
<path d="M17.4629 7.67676C17.4628 6.99179 17.2596 6.32223 16.8789 5.75275C16.4983 5.18326 15.9574 4.73943 15.3245 4.47737C14.6917 4.21531 13.9953 4.14679 13.3235 4.28047C12.6517 4.41416 12.0347 4.74405 11.5504 5.22843C11.0661 5.71281 10.7362 6.32992 10.6026 7.00173C10.4691 7.67355 10.5377 8.36989 10.7998 9.00271C11.062 9.63553 11.5059 10.1764 12.0754 10.5569C12.6449 10.9375 13.3145 11.1406 13.9995 11.1406C14.9178 11.1395 15.7981 10.7742 16.4474 10.1248C17.0967 9.47543 17.4619 8.59504 17.4629 7.67676ZM11.3564 7.67676C11.3565 7.15403 11.5116 6.64307 11.8021 6.20849C12.0926 5.7739 12.5054 5.43521 12.9884 5.23524C13.4713 5.03526 14.0027 4.98299 14.5154 5.08502C15.0281 5.18706 15.499 5.43882 15.8686 5.80848C16.2382 6.17813 16.4898 6.64908 16.5918 7.16177C16.6937 7.67446 16.6414 8.20586 16.4413 8.68879C16.2412 9.17171 15.9025 9.58447 15.4678 9.87487C15.0332 10.1653 14.5222 10.3203 13.9995 10.3203C13.2987 10.3195 12.6268 10.0407 12.1313 9.54509C11.6358 9.04949 11.3571 8.37757 11.3564 7.67676Z" fill="#ED4445"/>
<path d="M27.9046 27.3755L24.561 18.6099C24.5313 18.5323 24.4788 18.4655 24.4104 18.4184C24.342 18.3713 24.2608 18.346 24.1778 18.346H17.8496C17.8883 18.2829 17.9267 18.2218 17.9654 18.1585C20.4003 14.1272 21.6256 10.6008 21.6081 7.67864C21.6084 5.66068 20.8071 3.72523 19.3804 2.29807C17.9538 0.870907 16.0186 0.0689455 14.0006 0.0686036C11.9826 0.0682617 10.0472 0.869568 8.62003 2.29624C7.19287 3.72292 6.39091 5.6581 6.39057 7.67606C6.37299 10.6008 7.59831 14.1277 10.0332 18.1585C10.0719 18.2225 10.1103 18.2836 10.149 18.346H3.82088C3.7378 18.346 3.65669 18.3713 3.58827 18.4184C3.51985 18.4655 3.46734 18.5323 3.43768 18.6099L0.094556 27.3755C0.0707351 27.4376 0.0623937 27.5046 0.0702524 27.5706C0.0781111 27.6367 0.101934 27.6998 0.139662 27.7546C0.17739 27.8094 0.227888 27.8542 0.286795 27.8851C0.345701 27.916 0.411244 27.932 0.477759 27.9319H27.5214C27.5879 27.932 27.6534 27.916 27.7123 27.8851C27.7712 27.8542 27.8217 27.8094 27.8594 27.7546C27.8972 27.6998 27.921 27.6367 27.9289 27.5706C27.9367 27.5046 27.9284 27.4376 27.9046 27.3755ZM7.21112 7.67677C7.21127 6.7853 7.38701 5.90259 7.72831 5.07903C8.0696 4.25548 8.56976 3.50722 9.20023 2.87696C9.83071 2.2467 10.5791 1.7468 11.4028 1.40579C12.2265 1.06478 13.1093 0.889348 14.0007 0.889502C14.8922 0.889656 15.7749 1.0654 16.5985 1.40669C17.422 1.74798 18.1703 2.24814 18.8005 2.87862C19.4308 3.50909 19.9307 4.25753 20.2717 5.0812C20.6127 5.90487 20.7881 6.78764 20.788 7.67911C20.8231 13.5052 15.3763 20.6909 13.9996 22.414C12.6228 20.6916 7.17573 13.5078 7.21112 7.67677ZM13.6871 23.3281C13.7256 23.3734 13.7735 23.4097 13.8275 23.4347C13.8814 23.4596 13.9401 23.4725 13.9996 23.4725C14.059 23.4725 14.1177 23.4596 14.1716 23.4347C14.2256 23.4097 14.2735 23.3734 14.312 23.3281C15.401 22.0015 16.4105 20.6116 17.3354 19.1658H23.8949L24.4199 20.5428L11.6017 25.1016L7.03276 19.1651H10.6632C11.5882 20.6112 12.598 22.0013 13.6871 23.3281ZM11.5874 25.9765H11.5897L19.2367 23.2578L22.2027 27.1116H8.39799L11.5874 25.9765ZM4.10377 19.1651H5.99752L10.7886 25.3906L5.95042 27.1114H1.07307L4.10377 19.1651ZM23.2389 27.1116L20.0492 22.9674L24.7133 21.3087L26.9265 27.1116H23.2389Z" fill="#ED4445"/>
</svg>
