<svg width="217" height="24" viewBox="0 0 217 24" fill="none" xmlns="http://www.w3.org/2000/svg">
<path d="M38.864 18.112C38.1173 18.112 37.4453 17.984 36.848 17.728C36.2507 17.4613 35.7813 17.088 35.44 16.608C35.0987 16.128 34.928 15.568 34.928 14.928H36.88C36.9227 15.408 37.1093 15.8027 37.44 16.112C37.7813 16.4213 38.256 16.576 38.864 16.576C39.4933 16.576 39.984 16.4267 40.336 16.128C40.688 15.8187 40.864 15.424 40.864 14.944C40.864 14.5707 40.752 14.2667 40.528 14.032C40.3147 13.7973 40.0427 13.616 39.712 13.488C39.392 13.36 38.944 13.2213 38.368 13.072C37.6427 12.88 37.0507 12.688 36.592 12.496C36.144 12.2933 35.76 11.984 35.44 11.568C35.12 11.152 34.96 10.5973 34.96 9.904C34.96 9.264 35.12 8.704 35.44 8.224C35.76 7.744 36.208 7.376 36.784 7.12C37.36 6.864 38.0267 6.736 38.784 6.736C39.8613 6.736 40.7413 7.008 41.424 7.552C42.1173 8.08533 42.5013 8.82133 42.576 9.76H40.56C40.528 9.35467 40.336 9.008 39.984 8.72C39.632 8.432 39.168 8.288 38.592 8.288C38.0693 8.288 37.6427 8.42133 37.312 8.688C36.9813 8.95467 36.816 9.33867 36.816 9.84C36.816 10.1813 36.9173 10.464 37.12 10.688C37.3333 10.9013 37.6 11.072 37.92 11.2C38.24 11.328 38.6773 11.4667 39.232 11.616C39.968 11.8187 40.5653 12.0213 41.024 12.224C41.4933 12.4267 41.888 12.7413 42.208 13.168C42.5387 13.584 42.704 14.144 42.704 14.848C42.704 15.4133 42.5493 15.9467 42.24 16.448C41.9413 16.9493 41.4987 17.3547 40.912 17.664C40.336 17.9627 39.6533 18.112 38.864 18.112ZM44.2483 13.552C44.2483 12.6667 44.4296 11.8827 44.7923 11.2C45.1656 10.5173 45.6669 9.98933 46.2963 9.616C46.9363 9.232 47.6403 9.04 48.4083 9.04C49.1016 9.04 49.7043 9.17867 50.2163 9.456C50.7389 9.72267 51.1549 10.0587 51.4643 10.464V9.184H53.3043V18H51.4643V16.688C51.1549 17.104 50.7336 17.4507 50.2003 17.728C49.6669 18.0053 49.0589 18.144 48.3763 18.144C47.6189 18.144 46.9256 17.952 46.2963 17.568C45.6669 17.1733 45.1656 16.6293 44.7923 15.936C44.4296 15.232 44.2483 14.4373 44.2483 13.552ZM51.4643 13.584C51.4643 12.976 51.3363 12.448 51.0803 12C50.8349 11.552 50.5096 11.2107 50.1043 10.976C49.6989 10.7413 49.2616 10.624 48.7923 10.624C48.3229 10.624 47.8856 10.7413 47.4803 10.976C47.0749 11.2 46.7443 11.536 46.4883 11.984C46.2429 12.4213 46.1203 12.944 46.1203 13.552C46.1203 14.16 46.2429 14.6933 46.4883 15.152C46.7443 15.6107 47.0749 15.9627 47.4803 16.208C47.8963 16.4427 48.3336 16.56 48.7923 16.56C49.2616 16.56 49.6989 16.4427 50.1043 16.208C50.5096 15.9733 50.8349 15.632 51.0803 15.184C51.3363 14.7253 51.4643 14.192 51.4643 13.584ZM63.684 9.184V18H61.86V16.96C61.572 17.3227 61.1933 17.6107 60.724 17.824C60.2653 18.0267 59.7747 18.128 59.252 18.128C58.5587 18.128 57.9347 17.984 57.38 17.696C56.836 17.408 56.404 16.9813 56.084 16.416C55.7747 15.8507 55.62 15.168 55.62 14.368V9.184H57.428V14.096C57.428 14.8853 57.6253 15.4933 58.02 15.92C58.4147 16.336 58.9533 16.544 59.636 16.544C60.3187 16.544 60.8573 16.336 61.252 15.92C61.6573 15.4933 61.86 14.8853 61.86 14.096V9.184H63.684ZM65.4826 13.552C65.4826 12.6667 65.664 11.8827 66.0266 11.2C66.4 10.5173 66.9013 9.98933 67.5306 9.616C68.1706 9.232 68.88 9.04 69.6586 9.04C70.2346 9.04 70.8 9.168 71.3546 9.424C71.92 9.66933 72.368 10 72.6986 10.416V6.16H74.5386V18H72.6986V16.672C72.4 17.0987 71.984 17.4507 71.4506 17.728C70.928 18.0053 70.3253 18.144 69.6426 18.144C68.8746 18.144 68.1706 17.952 67.5306 17.568C66.9013 17.1733 66.4 16.6293 66.0266 15.936C65.664 15.232 65.4826 14.4373 65.4826 13.552ZM72.6986 13.584C72.6986 12.976 72.5706 12.448 72.3146 12C72.0693 11.552 71.744 11.2107 71.3386 10.976C70.9333 10.7413 70.496 10.624 70.0266 10.624C69.5573 10.624 69.12 10.7413 68.7146 10.976C68.3093 11.2 67.9786 11.536 67.7226 11.984C67.4773 12.4213 67.3546 12.944 67.3546 13.552C67.3546 14.16 67.4773 14.6933 67.7226 15.152C67.9786 15.6107 68.3093 15.9627 68.7146 16.208C69.1306 16.4427 69.568 16.56 70.0266 16.56C70.496 16.56 70.9333 16.4427 71.3386 16.208C71.744 15.9733 72.0693 15.632 72.3146 15.184C72.5706 14.7253 72.6986 14.192 72.6986 13.584ZM77.8624 8.016C77.5317 8.016 77.2544 7.904 77.0304 7.68C76.8064 7.456 76.6944 7.17867 76.6944 6.848C76.6944 6.51733 76.8064 6.24 77.0304 6.016C77.2544 5.792 77.5317 5.68 77.8624 5.68C78.1824 5.68 78.4544 5.792 78.6784 6.016C78.9024 6.24 79.0144 6.51733 79.0144 6.848C79.0144 7.17867 78.9024 7.456 78.6784 7.68C78.4544 7.904 78.1824 8.016 77.8624 8.016ZM78.7584 9.184V18H76.9344V9.184H78.7584ZM92.0134 15.728H87.3574L86.5574 18H84.6534L88.6374 6.864H90.7494L94.7334 18H92.8134L92.0134 15.728ZM91.5014 14.24L89.6934 9.072L87.8694 14.24H91.5014ZM98.2896 10.464C98.5563 10.016 98.9083 9.66933 99.3456 9.424C99.7936 9.168 100.322 9.04 100.93 9.04V10.928H100.466C99.751 10.928 99.207 11.1093 98.8336 11.472C98.471 11.8347 98.2896 12.464 98.2896 13.36V18H96.4656V9.184H98.2896V10.464ZM101.998 13.552C101.998 12.6667 102.18 11.8827 102.542 11.2C102.916 10.5173 103.417 9.98933 104.046 9.616C104.686 9.232 105.39 9.04 106.158 9.04C106.852 9.04 107.454 9.17867 107.966 9.456C108.489 9.72267 108.905 10.0587 109.214 10.464V9.184H111.054V18H109.214V16.688C108.905 17.104 108.484 17.4507 107.95 17.728C107.417 18.0053 106.809 18.144 106.126 18.144C105.369 18.144 104.676 17.952 104.046 17.568C103.417 17.1733 102.916 16.6293 102.542 15.936C102.18 15.232 101.998 14.4373 101.998 13.552ZM109.214 13.584C109.214 12.976 109.086 12.448 108.83 12C108.585 11.552 108.26 11.2107 107.854 10.976C107.449 10.7413 107.012 10.624 106.542 10.624C106.073 10.624 105.636 10.7413 105.23 10.976C104.825 11.2 104.494 11.536 104.238 11.984C103.993 12.4213 103.87 12.944 103.87 13.552C103.87 14.16 103.993 14.6933 104.238 15.152C104.494 15.6107 104.825 15.9627 105.23 16.208C105.646 16.4427 106.084 16.56 106.542 16.56C107.012 16.56 107.449 16.4427 107.854 16.208C108.26 15.9733 108.585 15.632 108.83 15.184C109.086 14.7253 109.214 14.192 109.214 13.584ZM115.274 10.496C115.583 10.0693 116.005 9.72267 116.538 9.456C117.082 9.17867 117.685 9.04 118.346 9.04C119.125 9.04 119.829 9.22667 120.458 9.6C121.087 9.97333 121.583 10.5067 121.946 11.2C122.309 11.8827 122.49 12.6667 122.49 13.552C122.49 14.4373 122.309 15.232 121.946 15.936C121.583 16.6293 121.082 17.1733 120.442 17.568C119.813 17.952 119.114 18.144 118.346 18.144C117.663 18.144 117.055 18.0107 116.522 17.744C115.999 17.4773 115.583 17.136 115.274 16.72V18H113.45V6.16H115.274V10.496ZM120.634 13.552C120.634 12.944 120.506 12.4213 120.25 11.984C120.005 11.536 119.674 11.2 119.258 10.976C118.853 10.7413 118.415 10.624 117.946 10.624C117.487 10.624 117.05 10.7413 116.634 10.976C116.229 11.2107 115.898 11.552 115.642 12C115.397 12.448 115.274 12.976 115.274 13.584C115.274 14.192 115.397 14.7253 115.642 15.184C115.898 15.632 116.229 15.9733 116.634 16.208C117.05 16.4427 117.487 16.56 117.946 16.56C118.415 16.56 118.853 16.4427 119.258 16.208C119.674 15.9627 120.005 15.6107 120.25 15.152C120.506 14.6933 120.634 14.16 120.634 13.552ZM125.222 8.016C124.891 8.016 124.614 7.904 124.39 7.68C124.166 7.456 124.054 7.17867 124.054 6.848C124.054 6.51733 124.166 6.24 124.39 6.016C124.614 5.792 124.891 5.68 125.222 5.68C125.542 5.68 125.814 5.792 126.038 6.016C126.262 6.24 126.374 6.51733 126.374 6.848C126.374 7.17867 126.262 7.456 126.038 7.68C125.814 7.904 125.542 8.016 125.222 8.016ZM126.118 9.184V18H124.294V9.184H126.118ZM127.905 13.552C127.905 12.6667 128.086 11.8827 128.449 11.2C128.822 10.5173 129.323 9.98933 129.953 9.616C130.593 9.232 131.297 9.04 132.065 9.04C132.758 9.04 133.361 9.17867 133.873 9.456C134.395 9.72267 134.811 10.0587 135.121 10.464V9.184H136.961V18H135.121V16.688C134.811 17.104 134.39 17.4507 133.857 17.728C133.323 18.0053 132.715 18.144 132.033 18.144C131.275 18.144 130.582 17.952 129.953 17.568C129.323 17.1733 128.822 16.6293 128.449 15.936C128.086 15.232 127.905 14.4373 127.905 13.552ZM135.121 13.584C135.121 12.976 134.993 12.448 134.737 12C134.491 11.552 134.166 11.2107 133.761 10.976C133.355 10.7413 132.918 10.624 132.449 10.624C131.979 10.624 131.542 10.7413 131.137 10.976C130.731 11.2 130.401 11.536 130.145 11.984C129.899 12.4213 129.777 12.944 129.777 13.552C129.777 14.16 129.899 14.6933 130.145 15.152C130.401 15.6107 130.731 15.9627 131.137 16.208C131.553 16.4427 131.99 16.56 132.449 16.56C132.918 16.56 133.355 16.4427 133.761 16.208C134.166 15.9733 134.491 15.632 134.737 15.184C134.993 14.7253 135.121 14.192 135.121 13.584ZM145.513 15.808L143.577 20.224H142.393L143.529 15.808H145.513ZM154.895 6.88C156.079 6.88 157.113 7.10933 157.999 7.568C158.895 8.016 159.583 8.66667 160.062 9.52C160.553 10.3627 160.799 11.3493 160.799 12.48C160.799 13.6107 160.553 14.592 160.062 15.424C159.583 16.256 158.895 16.896 157.999 17.344C157.113 17.7813 156.079 18 154.895 18H151.263V6.88H154.895ZM154.895 16.512C156.196 16.512 157.193 16.16 157.887 15.456C158.58 14.752 158.927 13.76 158.927 12.48C158.927 11.1893 158.58 10.1813 157.887 9.456C157.193 8.73067 156.196 8.368 154.895 8.368H153.087V16.512H154.895ZM161.998 13.552C161.998 12.6667 162.18 11.8827 162.542 11.2C162.916 10.5173 163.417 9.98933 164.046 9.616C164.686 9.232 165.39 9.04 166.158 9.04C166.852 9.04 167.454 9.17867 167.966 9.456C168.489 9.72267 168.905 10.0587 169.214 10.464V9.184H171.054V18H169.214V16.688C168.905 17.104 168.484 17.4507 167.95 17.728C167.417 18.0053 166.809 18.144 166.126 18.144C165.369 18.144 164.676 17.952 164.046 17.568C163.417 17.1733 162.916 16.6293 162.542 15.936C162.18 15.232 161.998 14.4373 161.998 13.552ZM169.214 13.584C169.214 12.976 169.086 12.448 168.83 12C168.585 11.552 168.26 11.2107 167.854 10.976C167.449 10.7413 167.012 10.624 166.542 10.624C166.073 10.624 165.636 10.7413 165.23 10.976C164.825 11.2 164.494 11.536 164.238 11.984C163.993 12.4213 163.87 12.944 163.87 13.552C163.87 14.16 163.993 14.6933 164.238 15.152C164.494 15.6107 164.825 15.9627 165.23 16.208C165.646 16.4427 166.084 16.56 166.542 16.56C167.012 16.56 167.449 16.4427 167.854 16.208C168.26 15.9733 168.585 15.632 168.83 15.184C169.086 14.7253 169.214 14.192 169.214 13.584ZM184.122 9.04C184.815 9.04 185.434 9.184 185.978 9.472C186.533 9.76 186.965 10.1867 187.274 10.752C187.594 11.3173 187.754 12 187.754 12.8V18H185.946V13.072C185.946 12.2827 185.749 11.68 185.354 11.264C184.959 10.8373 184.421 10.624 183.738 10.624C183.055 10.624 182.511 10.8373 182.106 11.264C181.711 11.68 181.514 12.2827 181.514 13.072V18H179.706V13.072C179.706 12.2827 179.509 11.68 179.114 11.264C178.719 10.8373 178.181 10.624 177.498 10.624C176.815 10.624 176.271 10.8373 175.866 11.264C175.471 11.68 175.274 12.2827 175.274 13.072V18H173.45V9.184H175.274V10.192C175.573 9.82933 175.951 9.54667 176.41 9.344C176.869 9.14133 177.359 9.04 177.882 9.04C178.586 9.04 179.215 9.18933 179.77 9.488C180.325 9.78667 180.751 10.2187 181.05 10.784C181.317 10.2507 181.733 9.82933 182.298 9.52C182.863 9.2 183.471 9.04 184.122 9.04ZM200.747 9.04C201.44 9.04 202.059 9.184 202.603 9.472C203.158 9.76 203.59 10.1867 203.899 10.752C204.219 11.3173 204.379 12 204.379 12.8V18H202.571V13.072C202.571 12.2827 202.374 11.68 201.979 11.264C201.584 10.8373 201.046 10.624 200.363 10.624C199.68 10.624 199.136 10.8373 198.731 11.264C198.336 11.68 198.139 12.2827 198.139 13.072V18H196.331V13.072C196.331 12.2827 196.134 11.68 195.739 11.264C195.344 10.8373 194.806 10.624 194.123 10.624C193.44 10.624 192.896 10.8373 192.491 11.264C192.096 11.68 191.899 12.2827 191.899 13.072V18H190.075V9.184H191.899V10.192C192.198 9.82933 192.576 9.54667 193.035 9.344C193.494 9.14133 193.984 9.04 194.507 9.04C195.211 9.04 195.84 9.18933 196.395 9.488C196.95 9.78667 197.376 10.2187 197.675 10.784C197.942 10.2507 198.358 9.82933 198.923 9.52C199.488 9.2 200.096 9.04 200.747 9.04ZM206.092 13.552C206.092 12.6667 206.273 11.8827 206.636 11.2C207.009 10.5173 207.511 9.98933 208.14 9.616C208.78 9.232 209.484 9.04 210.252 9.04C210.945 9.04 211.548 9.17867 212.06 9.456C212.583 9.72267 212.999 10.0587 213.308 10.464V9.184H215.148V18H213.308V16.688C212.999 17.104 212.577 17.4507 212.044 17.728C211.511 18.0053 210.903 18.144 210.22 18.144C209.463 18.144 208.769 17.952 208.14 17.568C207.511 17.1733 207.009 16.6293 206.636 15.936C206.273 15.232 206.092 14.4373 206.092 13.552ZM213.308 13.584C213.308 12.976 213.18 12.448 212.924 12C212.679 11.552 212.353 11.2107 211.948 10.976C211.543 10.7413 211.105 10.624 210.636 10.624C210.167 10.624 209.729 10.7413 209.324 10.976C208.919 11.2 208.588 11.536 208.332 11.984C208.087 12.4213 207.964 12.944 207.964 13.552C207.964 14.16 208.087 14.6933 208.332 15.152C208.588 15.6107 208.919 15.9627 209.324 16.208C209.74 16.4427 210.177 16.56 210.636 16.56C211.105 16.56 211.543 16.4427 211.948 16.208C212.353 15.9733 212.679 15.632 212.924 15.184C213.18 14.7253 213.308 14.192 213.308 13.584Z" fill="#FAFAFA"/>
<path fill-rule="evenodd" clip-rule="evenodd" d="M12.0004 7.94C10.6915 7.94 9.63037 9.00109 9.63037 10.31C9.63037 11.6189 10.6915 12.68 12.0004 12.68C13.3093 12.68 14.3704 11.6189 14.3704 10.31C14.3704 9.00109 13.3093 7.94 12.0004 7.94ZM8.13037 10.31C8.13037 8.17266 9.86303 6.44 12.0004 6.44C14.1377 6.44 15.8704 8.17266 15.8704 10.31C15.8704 12.4473 14.1377 14.18 12.0004 14.18C9.86303 14.18 8.13037 12.4473 8.13037 10.31Z" fill="#FAFAFA"/>
<path fill-rule="evenodd" clip-rule="evenodd" d="M12.0034 2.75C8.58671 2.74769 5.24485 4.73032 4.35162 8.65591C3.29456 13.3261 6.18829 17.3762 8.91039 19.9997C10.6409 21.661 13.3609 21.659 15.0794 20.0004L15.0807 19.999C17.8127 17.3756 20.7059 13.3354 19.6487 8.6656L19.6487 8.66556C18.7602 4.73971 15.4204 2.75231 12.0034 2.75ZM21.1117 8.33441C20.0402 3.60029 15.985 1.25269 12.0045 1.25C8.02383 1.24731 3.96581 3.58953 2.88889 8.32364L2.88871 8.32441C1.64601 13.8139 5.07199 18.3836 7.86975 21.08L7.87069 21.0809C10.1801 23.2989 13.8193 23.3008 16.1207 21.08C18.9285 18.3834 22.3544 13.8239 21.1117 8.33441Z" fill="#FAFAFA"/>
</svg>
