<svg width="81" height="24" viewBox="0 0 81 24" fill="none" xmlns="http://www.w3.org/2000/svg">
<path d="M12.1596 10.87C12.0596 10.86 11.9396 10.86 11.8296 10.87C9.44957 10.79 7.55957 8.84 7.55957 6.44C7.55957 3.99 9.53957 2 11.9996 2C14.4496 2 16.4396 3.99 16.4396 6.44C16.4296 8.84 14.5396 10.79 12.1596 10.87Z" stroke="#FAFAFA" stroke-width="1.5" stroke-linecap="round" stroke-linejoin="round"/>
<path d="M7.15973 14.56C4.73973 16.18 4.73973 18.82 7.15973 20.43C9.90973 22.27 14.4197 22.27 17.1697 20.43C19.5897 18.81 19.5897 16.17 17.1697 14.56C14.4297 12.73 9.91973 12.73 7.15973 14.56Z" stroke="#FAFAFA" stroke-width="1.5" stroke-linecap="round" stroke-linejoin="round"/>
<path d="M37.024 16.528H40.784V18H35.2V6.88H37.024V16.528ZM46.1334 18.144C45.3014 18.144 44.5494 17.9573 43.8774 17.584C43.2054 17.2 42.6774 16.6667 42.2934 15.984C41.9094 15.2907 41.7174 14.4907 41.7174 13.584C41.7174 12.688 41.9147 11.8933 42.3094 11.2C42.704 10.5067 43.2427 9.97333 43.9254 9.6C44.608 9.22667 45.3707 9.04 46.2134 9.04C47.056 9.04 47.8187 9.22667 48.5014 9.6C49.184 9.97333 49.7227 10.5067 50.1174 11.2C50.512 11.8933 50.7094 12.688 50.7094 13.584C50.7094 14.48 50.5067 15.2747 50.1014 15.968C49.696 16.6613 49.1414 17.2 48.4374 17.584C47.744 17.9573 46.976 18.144 46.1334 18.144ZM46.1334 16.56C46.6027 16.56 47.04 16.448 47.4454 16.224C47.8614 16 48.1974 15.664 48.4534 15.216C48.7094 14.768 48.8374 14.224 48.8374 13.584C48.8374 12.944 48.7147 12.4053 48.4694 11.968C48.224 11.52 47.8987 11.184 47.4934 10.96C47.088 10.736 46.6507 10.624 46.1814 10.624C45.712 10.624 45.2747 10.736 44.8694 10.96C44.4747 11.184 44.16 11.52 43.9254 11.968C43.6907 12.4053 43.5734 12.944 43.5734 13.584C43.5734 14.5333 43.8134 15.2693 44.2934 15.792C44.784 16.304 45.3974 16.56 46.1334 16.56ZM56.0645 9.04C56.7472 9.04 57.3498 9.17867 57.8725 9.456C58.4058 9.72267 58.8218 10.0587 59.1205 10.464V9.184H60.9605V18.144C60.9605 18.9547 60.7898 19.6747 60.4485 20.304C60.1072 20.944 59.6112 21.4453 58.9605 21.808C58.3205 22.1707 57.5525 22.352 56.6565 22.352C55.4618 22.352 54.4698 22.0693 53.6805 21.504C52.8912 20.9493 52.4432 20.192 52.3365 19.232H54.1445C54.2832 19.6907 54.5765 20.0587 55.0245 20.336C55.4832 20.624 56.0272 20.768 56.6565 20.768C57.3925 20.768 57.9845 20.544 58.4325 20.096C58.8912 19.648 59.1205 18.9973 59.1205 18.144V16.672C58.8112 17.088 58.3898 17.44 57.8565 17.728C57.3338 18.0053 56.7365 18.144 56.0645 18.144C55.2965 18.144 54.5925 17.952 53.9525 17.568C53.3232 17.1733 52.8218 16.6293 52.4485 15.936C52.0858 15.232 51.9045 14.4373 51.9045 13.552C51.9045 12.6667 52.0858 11.8827 52.4485 11.2C52.8218 10.5173 53.3232 9.98933 53.9525 9.616C54.5925 9.232 55.2965 9.04 56.0645 9.04ZM59.1205 13.584C59.1205 12.976 58.9925 12.448 58.7365 12C58.4912 11.552 58.1658 11.2107 57.7605 10.976C57.3552 10.7413 56.9178 10.624 56.4485 10.624C55.9792 10.624 55.5418 10.7413 55.1365 10.976C54.7312 11.2 54.4005 11.536 54.1445 11.984C53.8992 12.4213 53.7765 12.944 53.7765 13.552C53.7765 14.16 53.8992 14.6933 54.1445 15.152C54.4005 15.6107 54.7312 15.9627 55.1365 16.208C55.5525 16.4427 55.9898 16.56 56.4485 16.56C56.9178 16.56 57.3552 16.4427 57.7605 16.208C58.1658 15.9733 58.4912 15.632 58.7365 15.184C58.9925 14.7253 59.1205 14.192 59.1205 13.584ZM69.3365 6.88V18H67.5125V6.88H69.3365ZM76.1793 9.04C76.8726 9.04 77.4913 9.184 78.0353 9.472C78.5899 9.76 79.0219 10.1867 79.3313 10.752C79.6406 11.3173 79.7953 12 79.7953 12.8V18H77.9873V13.072C77.9873 12.2827 77.7899 11.68 77.3953 11.264C77.0006 10.8373 76.4619 10.624 75.7793 10.624C75.0966 10.624 74.5526 10.8373 74.1473 11.264C73.7526 11.68 73.5553 12.2827 73.5553 13.072V18H71.7313V9.184H73.5553V10.192C73.8539 9.82933 74.2326 9.54667 74.6913 9.344C75.1606 9.14133 75.6566 9.04 76.1793 9.04Z" fill="#FAFAFA"/>
</svg>
