<svg width="198" height="75" viewBox="0 0 198 75" fill="none" xmlns="http://www.w3.org/2000/svg">
<path d="M17.0114 11.0909H24.3068V35.4318C24.3068 37.6818 23.8011 39.6364 22.7898 41.2955C21.7898 42.9545 20.3977 44.233 18.6136 45.1307C16.8295 46.0284 14.7557 46.4773 12.392 46.4773C10.2898 46.4773 8.38068 46.108 6.66477 45.3693C4.96023 44.6193 3.60795 43.483 2.60795 41.9602C1.60795 40.4261 1.11364 38.5 1.125 36.1818H8.47159C8.49432 37.1023 8.68182 37.892 9.03409 38.5511C9.39773 39.1989 9.89205 39.6989 10.517 40.0511C11.1534 40.392 11.9034 40.5625 12.767 40.5625C13.6761 40.5625 14.4432 40.3693 15.0682 39.983C15.7045 39.5852 16.1875 39.0057 16.517 38.2443C16.8466 37.483 17.0114 36.5455 17.0114 35.4318V11.0909Z" fill="white"/>
<path d="M41.0341 46V11.0909H64.5568V17.1761H48.4148V25.4943H63.3466V31.5795H48.4148V39.9148H64.625V46H41.0341Z" fill="white"/>
<path d="M172.955 11.0909L179.994 22.9886H180.267L187.341 11.0909H195.676L185.023 28.5455L195.915 46H187.426L180.267 34.0852H179.994L172.835 46H164.381L175.307 28.5455L164.585 11.0909H172.955Z" fill="#ED4445"/>
<path d="M126.034 46V11.0909H149.557V17.1761H133.415V25.4943H148.347V31.5795H133.415V39.9148H149.625V46H126.034Z" fill="#ED4445"/>
<path d="M93.4091 46H81.0341V11.0909H93.5114C97.0227 11.0909 100.045 11.7898 102.58 13.1875C105.114 14.5739 107.063 16.5682 108.426 19.1705C109.801 21.7727 110.489 24.8864 110.489 28.5114C110.489 32.1477 109.801 35.2727 108.426 37.8864C107.063 40.5 105.102 42.5057 102.545 43.9034C100 45.3011 96.9545 46 93.4091 46ZM88.4148 39.6761H93.1023C95.2841 39.6761 97.1193 39.2898 98.608 38.517C100.108 37.733 101.233 36.5227 101.983 34.8864C102.744 33.2386 103.125 31.1136 103.125 28.5114C103.125 25.9318 102.744 23.8239 101.983 22.1875C101.233 20.5511 100.114 19.3466 98.625 18.5739C97.1364 17.8011 95.3011 17.4148 93.1193 17.4148H88.4148V39.6761Z" fill="#ED4445"/>
<path d="M139.409 70.9257V59.2893H146.432V60.5393H140.818V64.4712H146.068V65.7212H140.818V69.6757H146.523V70.9257H139.409ZM149.79 62.1984L151.881 65.7666L153.972 62.1984H155.517L152.699 66.5621L155.517 70.9257H153.972L151.881 67.5393L149.79 70.9257H148.244L151.017 66.5621L148.244 62.1984H149.79ZM157.43 74.1984V62.1984H158.726V63.5848H158.885C158.983 63.4333 159.12 63.2401 159.294 63.0052C159.472 62.7666 159.726 62.5545 160.055 62.3689C160.389 62.1795 160.839 62.0848 161.408 62.0848C162.143 62.0848 162.79 62.2685 163.351 62.6359C163.911 63.0034 164.349 63.5242 164.663 64.1984C164.978 64.8727 165.135 65.6681 165.135 66.5848C165.135 67.509 164.978 68.3102 164.663 68.9882C164.349 69.6624 163.913 70.1852 163.357 70.5564C162.8 70.9238 162.158 71.1075 161.43 71.1075C160.87 71.1075 160.421 71.0147 160.084 70.8291C159.747 70.6397 159.487 70.4257 159.305 70.1871C159.124 69.9446 158.983 69.7439 158.885 69.5848H158.771V74.1984H157.43ZM158.749 66.5621C158.749 67.2212 158.845 67.8026 159.038 68.3064C159.232 68.8064 159.514 69.1984 159.885 69.4825C160.256 69.7628 160.711 69.903 161.249 69.903C161.809 69.903 162.277 69.7553 162.652 69.4598C163.031 69.1606 163.315 68.759 163.504 68.2553C163.697 67.7477 163.794 67.1833 163.794 66.5621C163.794 65.9484 163.699 65.3954 163.51 64.903C163.324 64.4068 163.042 64.0147 162.663 63.7268C162.288 63.4352 161.817 63.2893 161.249 63.2893C160.703 63.2893 160.245 63.4276 159.874 63.7041C159.502 63.9768 159.222 64.3594 159.033 64.8518C158.843 65.3405 158.749 65.9106 158.749 66.5621ZM167.18 70.9257V62.1984H168.476V63.5166H168.567C168.726 63.0848 169.014 62.7344 169.43 62.4655C169.847 62.1965 170.317 62.0621 170.839 62.0621C170.938 62.0621 171.061 62.064 171.209 62.0677C171.357 62.0715 171.468 62.0772 171.544 62.0848V63.4484C171.499 63.4371 171.394 63.42 171.232 63.3973C171.072 63.3708 170.904 63.3575 170.726 63.3575C170.302 63.3575 169.923 63.4465 169.589 63.6246C169.26 63.7988 168.999 64.0412 168.805 64.3518C168.616 64.6587 168.521 65.009 168.521 65.403V70.9257H167.18ZM176.527 71.1075C175.686 71.1075 174.961 70.9219 174.351 70.5507C173.745 70.1757 173.277 69.653 172.947 68.9825C172.622 68.3083 172.459 67.5242 172.459 66.6303C172.459 65.7363 172.622 64.9484 172.947 64.2666C173.277 63.581 173.735 63.0469 174.322 62.6643C174.913 62.278 175.603 62.0848 176.391 62.0848C176.845 62.0848 177.294 62.1606 177.737 62.3121C178.18 62.4636 178.584 62.7098 178.947 63.0507C179.311 63.3878 179.601 63.8348 179.817 64.3916C180.033 64.9484 180.141 65.634 180.141 66.4484V67.0166H173.413V65.8575H178.777C178.777 65.3651 178.679 64.9257 178.482 64.5393C178.288 64.153 178.012 63.8481 177.652 63.6246C177.296 63.4011 176.875 63.2893 176.391 63.2893C175.857 63.2893 175.394 63.4219 175.004 63.6871C174.618 63.9484 174.321 64.2893 174.112 64.7098C173.904 65.1303 173.8 65.581 173.8 66.0621V66.8348C173.8 67.4939 173.913 68.0526 174.141 68.5109C174.372 68.9655 174.692 69.3121 175.101 69.5507C175.51 69.7856 175.985 69.903 176.527 69.903C176.879 69.903 177.197 69.8537 177.482 69.7553C177.769 69.653 178.018 69.5015 178.226 69.3007C178.434 69.0962 178.595 68.8424 178.709 68.5393L180.004 68.903C179.868 69.3424 179.639 69.7287 179.317 70.0621C178.995 70.3916 178.597 70.6492 178.124 70.8348C177.65 71.0166 177.118 71.1075 176.527 71.1075ZM188.362 64.153L187.158 64.4939C187.082 64.2931 186.97 64.0981 186.822 63.9087C186.679 63.7155 186.482 63.5564 186.232 63.4314C185.982 63.3064 185.661 63.2439 185.271 63.2439C184.737 63.2439 184.292 63.367 183.936 63.6132C183.584 63.8556 183.408 64.1643 183.408 64.5393C183.408 64.8727 183.529 65.1359 183.771 65.3291C184.014 65.5223 184.393 65.6833 184.908 65.8121L186.203 66.1303C186.983 66.3196 187.565 66.6094 187.947 66.9996C188.33 67.3859 188.521 67.884 188.521 68.4939C188.521 68.9939 188.377 69.4409 188.089 69.8348C187.805 70.2287 187.408 70.5393 186.896 70.7666C186.385 70.9939 185.79 71.1075 185.112 71.1075C184.222 71.1075 183.485 70.9143 182.902 70.528C182.319 70.1416 181.949 69.5772 181.794 68.8348L183.067 68.5166C183.188 68.9863 183.417 69.3386 183.754 69.5734C184.095 69.8083 184.54 69.9257 185.089 69.9257C185.714 69.9257 186.211 69.7931 186.578 69.528C186.949 69.259 187.135 68.9371 187.135 68.5621C187.135 68.259 187.029 68.0053 186.817 67.8007C186.605 67.5924 186.279 67.4371 185.839 67.3348L184.385 66.9939C183.586 66.8045 182.999 66.5109 182.624 66.1132C182.252 65.7117 182.067 65.2098 182.067 64.6075C182.067 64.1151 182.205 63.6795 182.482 63.3007C182.762 62.9219 183.143 62.6246 183.624 62.4087C184.108 62.1928 184.658 62.0848 185.271 62.0848C186.135 62.0848 186.813 62.2742 187.305 62.653C187.802 63.0318 188.154 63.5318 188.362 64.153ZM196.722 64.153L195.517 64.4939C195.441 64.2931 195.33 64.0981 195.182 63.9087C195.038 63.7155 194.841 63.5564 194.591 63.4314C194.341 63.3064 194.021 63.2439 193.631 63.2439C193.097 63.2439 192.652 63.367 192.295 63.6132C191.943 63.8556 191.767 64.1643 191.767 64.5393C191.767 64.8727 191.888 65.1359 192.131 65.3291C192.373 65.5223 192.752 65.6833 193.267 65.8121L194.562 66.1303C195.343 66.3196 195.924 66.6094 196.307 66.9996C196.689 67.3859 196.881 67.884 196.881 68.4939C196.881 68.9939 196.737 69.4409 196.449 69.8348C196.165 70.2287 195.767 70.5393 195.256 70.7666C194.744 70.9939 194.15 71.1075 193.472 71.1075C192.581 71.1075 191.845 70.9143 191.261 70.528C190.678 70.1416 190.309 69.5772 190.153 68.8348L191.426 68.5166C191.547 68.9863 191.777 69.3386 192.114 69.5734C192.455 69.8083 192.9 69.9257 193.449 69.9257C194.074 69.9257 194.57 69.7931 194.938 69.528C195.309 69.259 195.494 68.9371 195.494 68.5621C195.494 68.259 195.388 68.0053 195.176 67.8007C194.964 67.5924 194.638 67.4371 194.199 67.3348L192.744 66.9939C191.945 66.8045 191.358 66.5109 190.983 66.1132C190.612 65.7117 190.426 65.2098 190.426 64.6075C190.426 64.1151 190.564 63.6795 190.841 63.3007C191.121 62.9219 191.502 62.6246 191.983 62.4087C192.468 62.1928 193.017 62.0848 193.631 62.0848C194.494 62.0848 195.172 62.2742 195.665 62.653C196.161 63.0318 196.513 63.5318 196.722 64.153Z" fill="white"/>
<path d="M0 64.7035L122 64.7035" stroke="white" stroke-width="3" stroke-miterlimit="10"/>
</svg>
