<svg width="198" height="75" viewBox="0 0 198 75" fill="none" xmlns="http://www.w3.org/2000/svg">
<path d="M17.0114 11.0909H24.3068V35.4318C24.3068 37.6818 23.8011 39.6364 22.7898 41.2955C21.7898 42.9545 20.3977 44.233 18.6136 45.1307C16.8295 46.0284 14.7557 46.4773 12.392 46.4773C10.2898 46.4773 8.38068 46.108 6.66477 45.3693C4.96023 44.6193 3.60795 43.483 2.60795 41.9602C1.60795 40.4261 1.11364 38.5 1.125 36.1818H8.47159C8.49432 37.1023 8.68182 37.892 9.03409 38.5511C9.39773 39.1989 9.89205 39.6989 10.517 40.0511C11.1534 40.392 11.9034 40.5625 12.767 40.5625C13.6761 40.5625 14.4432 40.3693 15.0682 39.983C15.7045 39.5852 16.1875 39.0057 16.517 38.2443C16.8466 37.483 17.0114 36.5455 17.0114 35.4318V11.0909Z" fill="white"/>
<path d="M41.0341 46V11.0909H64.5568V17.1761H48.4148V25.4943H63.3466V31.5795H48.4148V39.9148H64.625V46H41.0341Z" fill="white"/>
<path d="M172.955 11.0909L179.994 22.9886H180.267L187.341 11.0909H195.676L185.023 28.5455L195.915 46H187.426L180.267 34.0852H179.994L172.835 46H164.381L175.307 28.5455L164.585 11.0909H172.955Z" fill="#ED4445"/>
<path d="M126.034 46V11.0909H149.557V17.1761H133.415V25.4943H148.347V31.5795H133.415V39.9148H149.625V46H126.034Z" fill="#ED4445"/>
<path d="M93.4091 46H81.0341V11.0909H93.5114C97.0227 11.0909 100.045 11.7898 102.58 13.1875C105.114 14.5739 107.063 16.5682 108.426 19.1705C109.801 21.7727 110.489 24.8864 110.489 28.5114C110.489 32.1477 109.801 35.2727 108.426 37.8864C107.063 40.5 105.102 42.5057 102.545 43.9034C100 45.3011 96.9545 46 93.4091 46ZM88.4148 39.6761H93.1023C95.2841 39.6761 97.1193 39.2898 98.608 38.517C100.108 37.733 101.233 36.5227 101.983 34.8864C102.744 33.2386 103.125 31.1136 103.125 28.5114C103.125 25.9318 102.744 23.8239 101.983 22.1875C101.233 20.5511 100.114 19.3466 98.625 18.5739C97.1364 17.8011 95.3011 17.4148 93.1193 17.4148H88.4148V39.6761Z" fill="#ED4445"/>
<path d="M139.409 70.9258V59.2894H146.432V60.5394H140.818V64.4712H146.068V65.7212H140.818V69.6758H146.523V70.9258H139.409ZM149.79 62.1985L151.881 65.7667L153.972 62.1985H155.517L152.699 66.5621L155.517 70.9258H153.972L151.881 67.5394L149.79 70.9258H148.244L151.017 66.5621L148.244 62.1985H149.79ZM157.43 74.1985V62.1985H158.726V63.5849H158.885C158.983 63.4334 159.12 63.2402 159.294 63.0053C159.472 62.7667 159.726 62.5546 160.055 62.369C160.389 62.1796 160.839 62.0849 161.408 62.0849C162.143 62.0849 162.79 62.2686 163.351 62.636C163.911 63.0034 164.349 63.5243 164.663 64.1985C164.978 64.8728 165.135 65.6682 165.135 66.5849C165.135 67.5091 164.978 68.3103 164.663 68.9883C164.349 69.6625 163.913 70.1853 163.357 70.5565C162.8 70.9239 162.158 71.1076 161.43 71.1076C160.87 71.1076 160.421 71.0148 160.084 70.8292C159.747 70.6398 159.487 70.4258 159.305 70.1871C159.124 69.9447 158.983 69.744 158.885 69.5849H158.771V74.1985H157.43ZM158.749 66.5621C158.749 67.2212 158.845 67.8027 159.038 68.3065C159.232 68.8065 159.514 69.1985 159.885 69.4826C160.256 69.7629 160.711 69.9031 161.249 69.9031C161.809 69.9031 162.277 69.7553 162.652 69.4599C163.031 69.1606 163.315 68.7591 163.504 68.2553C163.697 67.7478 163.794 67.1834 163.794 66.5621C163.794 65.9485 163.699 65.3955 163.51 64.9031C163.324 64.4068 163.042 64.0148 162.663 63.7269C162.288 63.4353 161.817 63.2894 161.249 63.2894C160.703 63.2894 160.245 63.4277 159.874 63.7042C159.502 63.9769 159.222 64.3595 159.033 64.8519C158.843 65.3406 158.749 65.9106 158.749 66.5621ZM167.18 70.9258V62.1985H168.476V63.5167H168.567C168.726 63.0849 169.014 62.7345 169.43 62.4656C169.847 62.1966 170.317 62.0621 170.839 62.0621C170.938 62.0621 171.061 62.064 171.209 62.0678C171.357 62.0716 171.468 62.0773 171.544 62.0849V63.4485C171.499 63.4371 171.394 63.4201 171.232 63.3974C171.072 63.3709 170.904 63.3576 170.726 63.3576C170.302 63.3576 169.923 63.4466 169.589 63.6246C169.26 63.7989 168.999 64.0413 168.805 64.3519C168.616 64.6587 168.521 65.0091 168.521 65.4031V70.9258H167.18ZM176.527 71.1076C175.686 71.1076 174.961 70.922 174.351 70.5508C173.745 70.1758 173.277 69.6531 172.947 68.9826C172.622 68.3084 172.459 67.5243 172.459 66.6303C172.459 65.7364 172.622 64.9485 172.947 64.2667C173.277 63.5811 173.735 63.047 174.322 62.6644C174.913 62.2781 175.603 62.0849 176.391 62.0849C176.845 62.0849 177.294 62.1606 177.737 62.3121C178.18 62.4637 178.584 62.7099 178.947 63.0508C179.311 63.3879 179.601 63.8349 179.817 64.3917C180.033 64.9485 180.141 65.6341 180.141 66.4485V67.0167H173.413V65.8576H178.777C178.777 65.3652 178.679 64.9258 178.482 64.5394C178.288 64.1531 178.012 63.8481 177.652 63.6246C177.296 63.4012 176.875 63.2894 176.391 63.2894C175.857 63.2894 175.394 63.422 175.004 63.6871C174.618 63.9485 174.321 64.2894 174.112 64.7099C173.904 65.1303 173.8 65.5811 173.8 66.0621V66.8349C173.8 67.494 173.913 68.0527 174.141 68.511C174.372 68.9656 174.692 69.3121 175.101 69.5508C175.51 69.7856 175.985 69.9031 176.527 69.9031C176.879 69.9031 177.197 69.8538 177.482 69.7553C177.769 69.6531 178.018 69.5015 178.226 69.3008C178.434 69.0962 178.595 68.8424 178.709 68.5394L180.004 68.9031C179.868 69.3424 179.639 69.7288 179.317 70.0621C178.995 70.3917 178.597 70.6493 178.124 70.8349C177.65 71.0167 177.118 71.1076 176.527 71.1076ZM188.362 64.1531L187.158 64.494C187.082 64.2932 186.97 64.0981 186.822 63.9087C186.679 63.7156 186.482 63.5565 186.232 63.4315C185.982 63.3065 185.661 63.244 185.271 63.244C184.737 63.244 184.292 63.3671 183.936 63.6133C183.584 63.8557 183.408 64.1644 183.408 64.5394C183.408 64.8728 183.529 65.136 183.771 65.3292C184.014 65.5224 184.393 65.6834 184.908 65.8121L186.203 66.1303C186.983 66.3197 187.565 66.6095 187.947 66.9996C188.33 67.386 188.521 67.8841 188.521 68.494C188.521 68.994 188.377 69.4409 188.089 69.8349C187.805 70.2288 187.408 70.5394 186.896 70.7667C186.385 70.994 185.79 71.1076 185.112 71.1076C184.222 71.1076 183.485 70.9144 182.902 70.5281C182.319 70.1417 181.949 69.5773 181.794 68.8349L183.067 68.5167C183.188 68.9864 183.417 69.3387 183.754 69.5735C184.095 69.8084 184.54 69.9258 185.089 69.9258C185.714 69.9258 186.211 69.7932 186.578 69.5281C186.949 69.2591 187.135 68.9371 187.135 68.5621C187.135 68.2591 187.029 68.0053 186.817 67.8008C186.605 67.5924 186.279 67.4371 185.839 67.3349L184.385 66.994C183.586 66.8046 182.999 66.511 182.624 66.1133C182.252 65.7118 182.067 65.2099 182.067 64.6076C182.067 64.1152 182.205 63.6796 182.482 63.3008C182.762 62.922 183.143 62.6246 183.624 62.4087C184.108 62.1928 184.658 62.0849 185.271 62.0849C186.135 62.0849 186.813 62.2743 187.305 62.6531C187.802 63.0318 188.154 63.5318 188.362 64.1531ZM196.722 64.1531L195.517 64.494C195.441 64.2932 195.33 64.0981 195.182 63.9087C195.038 63.7156 194.841 63.5565 194.591 63.4315C194.341 63.3065 194.021 63.244 193.631 63.244C193.097 63.244 192.652 63.3671 192.295 63.6133C191.943 63.8557 191.767 64.1644 191.767 64.5394C191.767 64.8728 191.888 65.136 192.131 65.3292C192.373 65.5224 192.752 65.6834 193.267 65.8121L194.562 66.1303C195.343 66.3197 195.924 66.6095 196.307 66.9996C196.689 67.386 196.881 67.8841 196.881 68.494C196.881 68.994 196.737 69.4409 196.449 69.8349C196.165 70.2288 195.767 70.5394 195.256 70.7667C194.744 70.994 194.15 71.1076 193.472 71.1076C192.581 71.1076 191.845 70.9144 191.261 70.5281C190.678 70.1417 190.309 69.5773 190.153 68.8349L191.426 68.5167C191.547 68.9864 191.777 69.3387 192.114 69.5735C192.455 69.8084 192.9 69.9258 193.449 69.9258C194.074 69.9258 194.57 69.7932 194.938 69.5281C195.309 69.2591 195.494 68.9371 195.494 68.5621C195.494 68.2591 195.388 68.0053 195.176 67.8008C194.964 67.5924 194.638 67.4371 194.199 67.3349L192.744 66.994C191.945 66.8046 191.358 66.511 190.983 66.1133C190.612 65.7118 190.426 65.2099 190.426 64.6076C190.426 64.1152 190.564 63.6796 190.841 63.3008C191.121 62.922 191.502 62.6246 191.983 62.4087C192.468 62.1928 193.017 62.0849 193.631 62.0849C194.494 62.0849 195.172 62.2743 195.665 62.6531C196.161 63.0318 196.513 63.5318 196.722 64.1531Z" fill="white"/>
<path d="M0 64.7034L122 64.7034" stroke="white" stroke-width="3" stroke-miterlimit="10"/>
</svg>
