<svg width="151" height="24" viewBox="0 0 151 24" fill="none" xmlns="http://www.w3.org/2000/svg">
<path fill-rule="evenodd" clip-rule="evenodd" d="M5.59 2.75C5.08187 2.75 4.56293 2.95593 4.03614 3.47449L4.03046 3.48008L4.02467 3.48555C3.56991 3.91456 3.25506 4.38355 3.05792 4.88459L3.05637 4.88855C2.85415 5.39409 2.75 5.94888 2.75 6.54C2.75 7.46267 2.96266 8.45326 3.41075 9.51784C3.86507 10.5871 4.49483 11.6779 5.28758 12.7803C6.0935 13.887 6.99752 14.9469 8.00038 15.9597C9.01353 16.9629 10.0741 17.8675 11.1922 18.6842C12.291 19.4842 13.3917 20.1146 14.484 20.58C15.5587 21.0379 16.5486 21.25 17.45 21.25C18.0548 21.25 18.6064 21.1382 19.1115 20.9277L19.1156 20.926C19.6104 20.7232 20.0604 20.4034 20.4843 19.9364M2.98958 2.39989C3.74153 1.66198 4.62059 1.25 5.59 1.25C5.97318 1.25 6.36311 1.33138 6.71941 1.5014C7.08755 1.67229 7.42309 1.93393 7.68396 2.30922L10.0003 5.574C10.2053 5.85906 10.3657 6.13796 10.4818 6.42035C10.5997 6.6971 10.68 7.00644 10.68 7.32C10.68 7.70687 10.5673 8.07663 10.367 8.40939C10.1968 8.70784 9.96427 8.99567 9.69563 9.26502L9.00688 9.98096C9.01385 9.99743 9.02321 10.0197 9.03333 10.0455C9.183 10.3079 9.44802 10.6772 9.84989 11.1524C10.29 11.6609 10.7568 12.1761 11.2604 12.6897C11.7923 13.2116 12.2961 13.6858 12.8048 14.1178C13.2858 14.5247 13.6606 14.7841 13.933 14.9322C13.955 14.9417 13.9753 14.9509 13.9918 14.9584L14.6815 14.2778C14.955 14.0046 15.2482 13.7638 15.5612 13.5966C15.8882 13.4019 16.2447 13.29 16.64 13.29C16.9399 13.29 17.2362 13.354 17.534 13.4758C17.8169 13.5916 18.0939 13.7509 18.3717 13.9398L18.378 13.9441L21.6909 16.2961C22.0455 16.5425 22.3234 16.8545 22.4965 17.2479L22.5016 17.2596L22.5064 17.2715C22.6338 17.59 22.72 17.9351 22.72 18.33C22.72 18.8025 22.6147 19.2817 22.3982 19.7403C22.1984 20.1633 21.9381 20.5658 21.5957 20.9436C21.0402 21.5559 20.4107 22.0159 19.6865 22.3131C18.9922 22.6021 18.2445 22.75 17.45 22.75C16.3114 22.75 15.1213 22.4821 13.896 21.96C12.6885 21.4455 11.4895 20.7561 10.3086 19.8963L10.3076 19.8956C9.12671 19.0331 8.00824 18.0786 6.94224 17.0229L6.93709 17.0178C5.88147 15.9519 4.92677 14.8332 4.07368 13.6614L4.07114 13.658C3.22474 12.4813 2.5351 11.293 2.0297 10.1032L2.02877 10.101C1.51719 8.88605 1.25 7.69701 1.25 6.54C1.25 5.77184 1.3856 5.02732 1.66286 4.33342C1.94487 3.61753 2.38783 2.96904 2.98958 2.39989ZM5.59 2.75C5.76498 2.75 5.93314 2.78783 6.07545 2.85614L5.59 2.75ZM6.45336 3.16691C6.35581 3.02601 6.23429 2.92955 6.08571 2.86097L6.07545 2.85614M6.45336 3.16691L8.77831 6.44398L6.45336 3.16691ZM9.09584 6.99397C9.03246 6.83904 8.93418 6.66049 8.78135 6.44823L8.77831 6.44398M9.18 7.32C9.18 7.25575 9.16141 7.14722 9.10064 7.00544L9.09584 6.99397M9.18 7.32C9.18 7.40903 9.15514 7.51553 9.07935 7.64004L9.18 7.32ZM9.07935 7.64004L9.07305 7.6504L9.07935 7.64004ZM9.07305 7.6504L9.06708 7.66096L9.07305 7.6504ZM9.06708 7.66096C8.97896 7.81685 8.83569 8.00365 8.62967 8.20967L9.06708 7.66096ZM8.62967 8.20967L8.62454 8.2148L8.62967 8.20967ZM8.62454 8.2148L8.61951 8.22003L8.62454 8.2148ZM8.61951 8.22003L7.86359 9.00579L8.61951 8.22003ZM7.86359 9.00579C7.6056 9.26699 7.49 9.59078 7.49 9.93C7.49 10.081 7.51008 10.2127 7.54239 10.3419L7.55275 10.3833L7.56775 10.4233C7.58736 10.4756 7.60704 10.522 7.61951 10.5514C7.62075 10.5544 7.62193 10.5571 7.62302 10.5597C7.63602 10.5904 7.63857 10.5975 7.63858 10.5975L7.6596 10.6605L7.69158 10.7191C7.90702 11.1141 8.25419 11.5888 8.70746 12.1245L8.71287 12.1308C9.1705 12.6596 9.66123 13.2016 10.1946 13.7453L10.1996 13.7503L10.2046 13.7553C10.7507 14.2912 11.2851 14.7952 11.8346 15.2617L11.8355 15.2625C12.3777 15.7213 12.8536 16.0582 13.2591 16.2728L13.2944 16.2915L13.3315 16.3064C13.3366 16.3084 13.3476 16.3132 13.38 16.328C13.4073 16.3406 13.4492 16.3599 13.4946 16.3794L13.5105 16.3862L13.5267 16.3922C13.7163 16.4633 13.8919 16.48 14.04 16.48C14.4185 16.48 14.7355 16.3341 14.9782 16.0924L15.7368 15.3438L15.7403 15.3403C15.96 15.1207 16.1389 14.987 16.2769 14.9149L16.2988 14.9035L16.32 14.8906C16.4472 14.8132 16.5438 14.79 16.64 14.79C16.7201 14.79 16.8238 14.806 16.966 14.8642C17.1216 14.9278 17.3028 15.0273 17.5222 15.1761L20.8258 17.5215L20.8331 17.5266C20.9913 17.6362 21.072 17.74 21.1189 17.8418C21.1879 18.0176 21.22 18.1689 21.22 18.33C21.22 18.5775 21.1653 18.8383 21.0418 19.0997C20.9016 19.3966 20.7217 19.6743 20.4843 19.9364" fill="#FAFAFA"/>
<path d="M43.792 12.992H40.56V16.304H38.864V12.992H35.632V11.456H38.864V8.144H40.56V11.456H43.792V12.992ZM48.6539 14.832C48.7605 15.3653 48.9899 15.7707 49.3419 16.048C49.6939 16.3253 50.1685 16.464 50.7659 16.464C51.5232 16.464 52.0779 16.1653 52.4299 15.568C52.7819 14.9707 52.9579 13.952 52.9579 12.512C52.7019 12.8747 52.3392 13.1573 51.8699 13.36C51.4112 13.552 50.9099 13.648 50.3659 13.648C49.6725 13.648 49.0432 13.5093 48.4779 13.232C47.9125 12.944 47.4645 12.5227 47.1339 11.968C46.8139 11.4027 46.6539 10.72 46.6539 9.92C46.6539 8.74667 46.9952 7.81333 47.6779 7.12C48.3712 6.416 49.3205 6.064 50.5259 6.064C51.9765 6.064 53.0059 6.54933 53.6139 7.52C54.2325 8.48 54.5419 9.95733 54.5419 11.952C54.5419 13.328 54.4245 14.4533 54.1899 15.328C53.9659 16.2027 53.5712 16.864 53.0059 17.312C52.4405 17.76 51.6565 17.984 50.6539 17.984C49.5125 17.984 48.6325 17.6853 48.0139 17.088C47.3952 16.4907 47.0485 15.7387 46.9739 14.832H48.6539ZM50.6859 12.112C51.3259 12.112 51.8272 11.9147 52.1899 11.52C52.5632 11.1147 52.7499 10.5813 52.7499 9.92C52.7499 9.184 52.5525 8.61333 52.1579 8.208C51.7739 7.792 51.2459 7.584 50.5739 7.584C49.9019 7.584 49.3685 7.79733 48.9739 8.224C48.5899 8.64 48.3979 9.18933 48.3979 9.872C48.3979 10.5227 48.5845 11.0613 48.9579 11.488C49.3419 11.904 49.9179 12.112 50.6859 12.112ZM63.9301 7.744L59.4821 18H57.6421L62.1381 7.936H56.2181V6.384H63.9301V7.744ZM66.4993 15.52C67.5233 14.6347 68.3286 13.9093 68.9153 13.344C69.5126 12.768 70.0086 12.1707 70.4033 11.552C70.7979 10.9333 70.9953 10.3147 70.9953 9.696C70.9953 9.056 70.8406 8.55467 70.5313 8.192C70.2326 7.82933 69.7579 7.648 69.1073 7.648C68.4779 7.648 67.9873 7.85067 67.6353 8.256C67.2939 8.65067 67.1126 9.184 67.0913 9.856H65.3313C65.3633 8.64 65.7259 7.712 66.4193 7.072C67.1233 6.42133 68.0139 6.096 69.0913 6.096C70.2539 6.096 71.1606 6.416 71.8113 7.056C72.4726 7.696 72.8033 8.54933 72.8033 9.616C72.8033 10.384 72.6059 11.1253 72.2113 11.84C71.8273 12.544 71.3633 13.1787 70.8193 13.744C70.2859 14.2987 69.6033 14.944 68.7713 15.68L68.0513 16.32H73.1233V17.84H65.3473V16.512L66.4993 15.52ZM82.2456 7.904H76.8856V11.088C77.1096 10.7893 77.4403 10.5387 77.8776 10.336C78.3256 10.1333 78.8003 10.032 79.3016 10.032C80.1976 10.032 80.923 10.224 81.4776 10.608C82.043 10.992 82.443 11.4773 82.6776 12.064C82.923 12.6507 83.0456 13.2693 83.0456 13.92C83.0456 14.7093 82.891 15.4133 82.5816 16.032C82.283 16.64 81.8296 17.12 81.2216 17.472C80.6243 17.824 79.8883 18 79.0136 18C77.851 18 76.9176 17.712 76.2136 17.136C75.5096 16.56 75.0883 15.7973 74.9496 14.848H76.7256C76.843 15.3493 77.1043 15.7493 77.5096 16.048C77.915 16.336 78.4216 16.48 79.0296 16.48C79.787 16.48 80.3523 16.2507 80.7256 15.792C81.1096 15.3333 81.3016 14.7253 81.3016 13.968C81.3016 13.2 81.1096 12.6133 80.7256 12.208C80.3416 11.792 79.7763 11.584 79.0296 11.584C78.507 11.584 78.0643 11.7173 77.7016 11.984C77.3496 12.24 77.0936 12.592 76.9336 13.04H75.2056V6.304H82.2456V7.904ZM87.2164 14.832C87.323 15.3653 87.5524 15.7707 87.9044 16.048C88.2564 16.3253 88.731 16.464 89.3284 16.464C90.0857 16.464 90.6404 16.1653 90.9924 15.568C91.3444 14.9707 91.5204 13.952 91.5204 12.512C91.2644 12.8747 90.9017 13.1573 90.4324 13.36C89.9737 13.552 89.4724 13.648 88.9284 13.648C88.235 13.648 87.6057 13.5093 87.0404 13.232C86.475 12.944 86.027 12.5227 85.6964 11.968C85.3764 11.4027 85.2164 10.72 85.2164 9.92C85.2164 8.74667 85.5577 7.81333 86.2404 7.12C86.9337 6.416 87.883 6.064 89.0884 6.064C90.539 6.064 91.5684 6.54933 92.1764 7.52C92.795 8.48 93.1044 9.95733 93.1044 11.952C93.1044 13.328 92.987 14.4533 92.7524 15.328C92.5284 16.2027 92.1337 16.864 91.5684 17.312C91.003 17.76 90.219 17.984 89.2164 17.984C88.075 17.984 87.195 17.6853 86.5764 17.088C85.9577 16.4907 85.611 15.7387 85.5364 14.832H87.2164ZM89.2484 12.112C89.8884 12.112 90.3897 11.9147 90.7524 11.52C91.1257 11.1147 91.3124 10.5813 91.3124 9.92C91.3124 9.184 91.115 8.61333 90.7204 8.208C90.3364 7.792 89.8084 7.584 89.1364 7.584C88.4644 7.584 87.931 7.79733 87.5364 8.224C87.1524 8.64 86.9604 9.18933 86.9604 9.872C86.9604 10.5227 87.147 11.0613 87.5204 11.488C87.9044 11.904 88.4804 12.112 89.2484 12.112ZM102.621 7.904H97.2606V11.088C97.4846 10.7893 97.8153 10.5387 98.2526 10.336C98.7006 10.1333 99.1753 10.032 99.6766 10.032C100.573 10.032 101.298 10.224 101.853 10.608C102.418 10.992 102.818 11.4773 103.053 12.064C103.298 12.6507 103.421 13.2693 103.421 13.92C103.421 14.7093 103.266 15.4133 102.957 16.032C102.658 16.64 102.205 17.12 101.597 17.472C100.999 17.824 100.263 18 99.3886 18C98.226 18 97.2926 17.712 96.5886 17.136C95.8846 16.56 95.4633 15.7973 95.3246 14.848H97.1006C97.218 15.3493 97.4793 15.7493 97.8846 16.048C98.29 16.336 98.7966 16.48 99.4046 16.48C100.162 16.48 100.727 16.2507 101.101 15.792C101.485 15.3333 101.677 14.7253 101.677 13.968C101.677 13.2 101.485 12.6133 101.101 12.208C100.717 11.792 100.151 11.584 99.4046 11.584C98.882 11.584 98.4393 11.7173 98.0766 11.984C97.7246 12.24 97.4686 12.592 97.3086 13.04H95.5806V6.304H102.621V7.904ZM105.079 8V6.336H108.407V18H106.567V8H105.079ZM110.673 8V6.336H114.001V18H112.161V8H110.673ZM116.267 8V6.336H119.595V18H117.755V8H116.267ZM124.373 14.832C124.479 15.3653 124.709 15.7707 125.061 16.048C125.413 16.3253 125.887 16.464 126.485 16.464C127.242 16.464 127.797 16.1653 128.149 15.568C128.501 14.9707 128.677 13.952 128.677 12.512C128.421 12.8747 128.058 13.1573 127.589 13.36C127.13 13.552 126.629 13.648 126.085 13.648C125.391 13.648 124.762 13.5093 124.197 13.232C123.631 12.944 123.183 12.5227 122.853 11.968C122.533 11.4027 122.373 10.72 122.373 9.92C122.373 8.74667 122.714 7.81333 123.397 7.12C124.09 6.416 125.039 6.064 126.245 6.064C127.695 6.064 128.725 6.54933 129.333 7.52C129.951 8.48 130.261 9.95733 130.261 11.952C130.261 13.328 130.143 14.4533 129.909 15.328C129.685 16.2027 129.29 16.864 128.725 17.312C128.159 17.76 127.375 17.984 126.373 17.984C125.231 17.984 124.351 17.6853 123.733 17.088C123.114 16.4907 122.767 15.7387 122.693 14.832H124.373ZM126.405 12.112C127.045 12.112 127.546 11.9147 127.909 11.52C128.282 11.1147 128.469 10.5813 128.469 9.92C128.469 9.184 128.271 8.61333 127.877 8.208C127.493 7.792 126.965 7.584 126.293 7.584C125.621 7.584 125.087 7.79733 124.693 8.224C124.309 8.64 124.117 9.18933 124.117 9.872C124.117 10.5227 124.303 11.0613 124.677 11.488C125.061 11.904 125.637 12.112 126.405 12.112ZM139.777 7.904H134.417V11.088C134.641 10.7893 134.972 10.5387 135.409 10.336C135.857 10.1333 136.332 10.032 136.833 10.032C137.729 10.032 138.454 10.224 139.009 10.608C139.574 10.992 139.974 11.4773 140.209 12.064C140.454 12.6507 140.577 13.2693 140.577 13.92C140.577 14.7093 140.422 15.4133 140.113 16.032C139.814 16.64 139.361 17.12 138.753 17.472C138.156 17.824 137.42 18 136.545 18C135.382 18 134.449 17.712 133.745 17.136C133.041 16.56 132.62 15.7973 132.481 14.848H134.257C134.374 15.3493 134.636 15.7493 135.041 16.048C135.446 16.336 135.953 16.48 136.561 16.48C137.318 16.48 137.884 16.2507 138.257 15.792C138.641 15.3333 138.833 14.7253 138.833 13.968C138.833 13.2 138.641 12.6133 138.257 12.208C137.873 11.792 137.308 11.584 136.561 11.584C136.038 11.584 135.596 11.7173 135.233 11.984C134.881 12.24 134.625 12.592 134.465 13.04H132.737V6.304H139.777V7.904ZM149.868 7.744L145.42 18H143.58L148.076 7.936H142.156V6.384H149.868V7.744Z" fill="#FAFAFA"/>
</svg>
