<svg width="24" height="26" viewBox="0 0 24 26" fill="none" xmlns="http://www.w3.org/2000/svg">
<path d="M13.1992 24.4C13.7515 24.4 14.1992 23.9523 14.1992 23.4C14.1992 22.8477 13.7515 22.4 13.1992 22.4C12.6469 22.4 12.1992 22.8477 12.1992 23.4C12.1992 23.9523 12.6469 24.4 13.1992 24.4Z" fill="#ED4445"/>
<path d="M9.19961 6.40007C9.53098 6.40007 9.79961 6.13144 9.79961 5.80007C9.79961 5.4687 9.53098 5.20007 9.19961 5.20007C8.86824 5.20007 8.59961 5.4687 8.59961 5.80007C8.59961 6.13144 8.86824 6.40007 9.19961 6.40007Z" fill="#ED4445"/>
<path d="M10.7992 6.40007C11.1306 6.40007 11.3992 6.13144 11.3992 5.80007C11.3992 5.4687 11.1306 5.20007 10.7992 5.20007C10.4678 5.20007 10.1992 5.4687 10.1992 5.80007C10.1992 6.13144 10.4678 6.40007 10.7992 6.40007Z" fill="#ED4445"/>
<path d="M12.3998 6.40007C12.7312 6.40007 12.9998 6.13144 12.9998 5.80007C12.9998 5.4687 12.7312 5.20007 12.3998 5.20007C12.0684 5.20007 11.7998 5.4687 11.7998 5.80007C11.7998 6.13144 12.0684 6.40007 12.3998 6.40007Z" fill="#ED4445"/>
<path d="M5.8 14.8H3.4C3.1791 14.8 3 14.9789 3 15.2C3 15.4211 3.1791 15.6 3.4 15.6H5.8C6.0209 15.6 6.2 15.4211 6.2 15.2C6.2 14.9789 6.0209 14.8 5.8 14.8ZM8.2 14.8H7C6.7791 14.8 6.6 14.9789 6.6 15.2C6.6 15.4211 6.7791 15.6 7 15.6H8.2C8.4209 15.6 8.6 15.4211 8.6 15.2C8.6 14.9789 8.4209 14.8 8.2 14.8Z" fill="#ED4445"/>
<path d="M23.3994 4.00002C23.3994 2.01482 21.7846 0.400024 19.7994 0.400024C18.0895 0.400024 16.6572 1.59922 16.2921 3.20002H8.24841C7.33921 3.20002 6.59941 3.93982 6.59941 4.84922V9.60002H2.27421C1.79181 9.60002 1.39941 9.99222 1.39941 10.4746V16.3254C1.39941 16.8078 1.79181 17.2 2.27421 17.2H12.9248C13.4072 17.2 13.7994 16.8078 13.7994 16.3254V10.4746C13.7994 9.99222 13.4072 9.60002 12.9248 9.60002H7.39941V4.84922C7.39941 4.38082 7.78031 4.00002 8.24841 4.00002H16.1994C16.1994 5.84982 17.602 7.37672 19.3994 7.57642V21.1976H7.39941V18.4246C7.39941 18.2035 7.22031 18.0246 6.99941 18.0246C6.77851 18.0246 6.59941 18.2035 6.59941 18.4246V23.9507C6.59941 24.8601 7.33921 25.5999 8.24841 25.5999H18.5502C19.4596 25.5999 20.1994 24.8601 20.1994 23.9507V7.57642C21.9968 7.37672 23.3994 5.84982 23.3994 4.00002ZM2.19941 12.4H12.9994V13.2H2.19941V12.4ZM12.9248 16.4H2.27421C2.25442 16.4 2.23544 16.3921 2.22142 16.3782C2.20741 16.3642 2.19949 16.3452 2.19941 16.3254V14H12.9994V16.3254C12.9994 16.3664 12.9658 16.4 12.9248 16.4ZM12.9994 10.4746V11.6H2.19941V10.4746C2.19941 10.4336 2.23301 10.4 2.27421 10.4H12.9248C12.9658 10.4 12.9994 10.4336 12.9994 10.4746ZM19.3994 23.9508C19.3994 24.4192 19.0185 24.8 18.5502 24.8H8.24841C7.78021 24.8 7.39941 24.4191 7.39941 23.9508V21.9977H19.3994V23.9508ZM19.7994 6.80002C18.2556 6.80002 16.9994 5.54382 16.9994 4.00002C16.9994 2.45622 18.2556 1.20002 19.7994 1.20002C21.3432 1.20002 22.5994 2.45622 22.5994 4.00002C22.5994 5.54382 21.3432 6.80002 19.7994 6.80002Z" fill="#ED4445"/>
<path d="M20.6668 2.5781L19.3375 4.5722L18.8824 4.1171C18.8455 4.0789 18.8014 4.04843 18.7526 4.02746C18.7038 4.0065 18.6513 3.99547 18.5982 3.995C18.5451 3.99454 18.4924 4.00466 18.4432 4.02478C18.3941 4.04489 18.3494 4.07459 18.3118 4.11215C18.2743 4.1497 18.2446 4.19436 18.2245 4.24352C18.2044 4.29268 18.1942 4.34535 18.1947 4.39846C18.1952 4.45158 18.2062 4.50406 18.2272 4.55287C18.2481 4.60167 18.2786 4.64581 18.3168 4.6827L19.1168 5.4827C19.1586 5.52461 19.2092 5.55671 19.265 5.57667C19.3207 5.59663 19.3802 5.60397 19.4391 5.59814C19.498 5.59231 19.5549 5.57347 19.6056 5.54297C19.6564 5.51248 19.6997 5.47109 19.7325 5.4218L21.3325 3.0218C21.3617 2.97811 21.3819 2.92909 21.3922 2.87756C21.4024 2.82603 21.4023 2.77299 21.392 2.72147C21.3817 2.66995 21.3614 2.62097 21.3321 2.57733C21.3029 2.53368 21.2653 2.49623 21.2216 2.4671C21.1779 2.43791 21.1289 2.41763 21.0773 2.40741C21.0258 2.39719 20.9727 2.39724 20.9212 2.40755C20.8697 2.41786 20.8207 2.43823 20.777 2.46749C20.7334 2.49676 20.6959 2.53435 20.6668 2.5781ZM4.99961 6C5.22051 6 5.39961 5.8211 5.39961 5.6V3.6C5.39961 3.3789 5.22051 3.2 4.99961 3.2C4.77871 3.2 4.59961 3.3789 4.59961 3.6V5.6C4.59961 5.8211 4.77871 6 4.99961 6ZM3.39961 7.6C3.39961 7.3789 3.22051 7.2 2.99961 7.2H0.999609C0.778709 7.2 0.599609 7.3789 0.599609 7.6C0.599609 7.8211 0.778709 8 0.999609 8H2.99961C3.22051 8 3.39961 7.8211 3.39961 7.6ZM3.14301 6.2523C3.22111 6.3304 3.32351 6.3695 3.42581 6.3695C3.52811 6.3695 3.63051 6.3304 3.70861 6.2523C3.7836 6.17729 3.82572 6.07557 3.82572 5.9695C3.82572 5.86344 3.7836 5.76171 3.70861 5.6867L2.28671 4.2648C2.24981 4.2266 2.20567 4.19613 2.15687 4.17516C2.10807 4.1542 2.05558 4.14317 2.00247 4.1427C1.94936 4.14224 1.89669 4.15236 1.84753 4.17248C1.79837 4.19259 1.75371 4.22229 1.71615 4.25985C1.67859 4.2974 1.64889 4.34206 1.62878 4.39122C1.60867 4.44038 1.59855 4.49305 1.59901 4.54616C1.59947 4.59928 1.61051 4.65176 1.63147 4.70057C1.65243 4.74937 1.68291 4.79351 1.72111 4.8304L3.14301 6.2523Z" fill="#ED4445"/>
</svg>
