<svg width="30" height="28" viewBox="0 0 30 28" fill="none" xmlns="http://www.w3.org/2000/svg">
<path d="M27.7099 12.125H26.2504C26.1673 11.824 25.9884 11.5583 25.7409 11.368C25.4933 11.1777 25.1905 11.0732 24.8783 11.0703H23.3203V7.26028C23.3221 7.18901 23.3048 7.11855 23.2704 7.05614C23.2359 6.99372 23.1855 6.94159 23.1243 6.90509L12.1334 0.556925C12.0715 0.520919 12.0011 0.501953 11.9295 0.501953C11.8578 0.501953 11.7874 0.520919 11.7255 0.556925L0.731252 6.90509C0.669044 6.94115 0.61744 6.99297 0.581642 7.05533C0.545844 7.11769 0.527116 7.18838 0.527346 7.26028V19.9567C0.527348 20.0287 0.5463 20.0994 0.582299 20.1617C0.618298 20.2241 0.670074 20.2759 0.732424 20.3119L11.7278 26.66C11.7901 26.696 11.8609 26.715 11.9329 26.715C12.0067 26.715 12.0793 26.6961 12.1438 26.66L17.9297 23.3227V25.7352C17.9291 25.9649 17.9741 26.1925 18.062 26.4047C18.1499 26.6169 18.2791 26.8095 18.442 26.9715C18.6049 27.1334 18.7982 27.2614 19.0109 27.3481C19.2236 27.4348 19.4514 27.4785 19.6811 27.4765H27.7099C27.9402 27.4787 28.1686 27.4353 28.3821 27.3488C28.5955 27.2623 28.7897 27.1344 28.9535 26.9726C29.1174 26.8108 29.2476 26.6181 29.3367 26.4058C29.4258 26.1934 29.472 25.9655 29.4727 25.7352V13.8934C29.4724 13.4255 29.2868 12.9767 28.9564 12.6453C28.6261 12.3139 28.1779 12.1268 27.7099 12.125ZM24.8929 11.8906C25.0508 11.8906 25.2023 11.9533 25.3139 12.065C25.4256 12.1766 25.4883 12.3281 25.4883 12.486V12.5257C25.4883 12.6836 25.4256 12.835 25.3139 12.9467C25.2023 13.0583 25.0508 13.1211 24.8929 13.1211H22.5094C22.3515 13.1211 22.2001 13.0583 22.0884 12.9467C21.9768 12.835 21.9141 12.6836 21.9141 12.5257V12.486C21.9141 12.3281 21.9768 12.1766 22.0884 12.065C22.2001 11.9533 22.3515 11.8906 22.5094 11.8906H24.8929ZM11.9329 1.38573L16.5016 4.02351L6.32731 9.89765L1.75858 7.25987L11.9329 1.38573ZM11.543 25.5944L1.34766 19.7198V7.9698L11.543 13.8443V25.5944ZM11.9329 13.134L7.14762 10.3712L17.322 4.49712L22.1074 7.25987L11.9329 13.134ZM17.9297 13.8934V22.3755L12.3633 25.5944V13.8443L22.5 7.9698V11.0703H22.5127C22.2005 11.0732 21.8977 11.1777 21.6502 11.368C21.4026 11.5583 21.2238 11.824 21.1406 12.125H19.6811C19.2143 12.1272 18.7676 12.3148 18.4391 12.6465C18.1107 12.9781 17.9274 13.4267 17.9297 13.8934ZM28.6523 25.7352C28.6518 25.8578 28.6269 25.9791 28.579 26.092C28.5312 26.2049 28.4614 26.3071 28.3737 26.3928C28.2861 26.4785 28.1822 26.5459 28.0683 26.5911C27.9543 26.6364 27.8325 26.6585 27.7099 26.6562H19.6811C19.5591 26.6583 19.438 26.6359 19.3247 26.5905C19.2115 26.5451 19.1085 26.4775 19.0217 26.3917C18.935 26.3059 18.8663 26.2036 18.8196 26.0909C18.7729 25.9782 18.7493 25.8573 18.75 25.7352V13.8934C18.7488 13.77 18.7719 13.6476 18.818 13.5331C18.8642 13.4186 18.9324 13.3143 19.0189 13.2263C19.1054 13.1382 19.2084 13.0681 19.322 13.0198C19.4357 12.9716 19.5577 12.9463 19.6811 12.9453H21.1566C21.2446 13.2356 21.4243 13.4896 21.6688 13.6692C21.9133 13.8488 22.2094 13.9443 22.5127 13.9414H24.8783C25.1817 13.9443 25.4778 13.8488 25.7223 13.6692C25.9667 13.4896 26.1464 13.2356 26.2344 12.9453H27.7099C27.9604 12.9469 28.2 13.0474 28.3766 13.2251C28.5532 13.4027 28.6523 13.643 28.6523 13.8934V25.7352Z" fill="#ED4445"/>
<path d="M20.1533 18.043H20.5826C20.6914 18.043 20.7957 17.9998 20.8726 17.9228C20.9495 17.8459 20.9928 17.7416 20.9928 17.6328C20.9928 17.524 20.9495 17.4197 20.8726 17.3428C20.7957 17.2659 20.6914 17.2227 20.5826 17.2227H20.5664V16.1094H21.6977C21.7235 16.1918 21.7755 16.2636 21.846 16.3136C21.9164 16.3636 22.0013 16.3892 22.0876 16.3863C22.1966 16.3866 22.3011 16.3437 22.3785 16.267C22.4558 16.1903 22.4995 16.086 22.5 15.9771V15.7012C22.4991 15.5917 22.455 15.487 22.3774 15.4099C22.2998 15.3327 22.1949 15.2893 22.0854 15.2891H20.1533C20.0995 15.2893 20.0463 15.3002 19.9967 15.3211C19.9471 15.342 19.9021 15.3724 19.8643 15.4107C19.8264 15.449 19.7965 15.4943 19.7763 15.5442C19.756 15.594 19.7458 15.6473 19.7461 15.7012V17.6333C19.7458 17.687 19.7561 17.7402 19.7764 17.7899C19.7967 17.8396 19.8267 17.8847 19.8645 17.9228C19.9023 17.9609 19.9473 17.9911 19.9969 18.0117C20.0465 18.0323 20.0996 18.043 20.1533 18.043ZM20.1563 21.793H22.0899C22.1987 21.793 22.303 21.7498 22.3799 21.6728C22.4568 21.5959 22.5 21.4916 22.5 21.3828V19.4492C22.5 19.3404 22.4568 19.2361 22.3799 19.1592C22.303 19.0823 22.1987 19.0391 22.0899 19.0391H20.1563C20.0475 19.0391 19.9432 19.0823 19.8663 19.1592C19.7893 19.2361 19.7461 19.3404 19.7461 19.4492V21.3828C19.7461 21.4916 19.7893 21.5959 19.8663 21.6728C19.9432 21.7498 20.0475 21.793 20.1563 21.793ZM20.5664 19.8594H21.6797V20.9727H20.5664V19.8594ZM20.5827 24.7227H20.5664V23.6094H21.6756C21.6777 23.7172 21.722 23.82 21.799 23.8955C21.876 23.9711 21.9795 24.0135 22.0874 24.0136C22.1953 24.0137 22.2989 23.9715 22.376 23.8961C22.4532 23.8207 22.4977 23.7181 22.5 23.6102V23.215C22.4996 23.1041 22.4561 22.9977 22.3788 22.9182C22.3014 22.8388 22.1963 22.7925 22.0854 22.7891H20.1533C20.0432 22.7928 19.939 22.8394 19.8629 22.919C19.7868 22.9986 19.7449 23.1049 19.7461 23.215V25.1471C19.7461 25.2001 19.7566 25.2525 19.7772 25.3013C19.7978 25.3501 19.828 25.3943 19.866 25.4312C19.9039 25.4681 19.9489 25.497 19.9983 25.5162C20.0476 25.5354 20.1004 25.5445 20.1533 25.543H20.5827C20.6914 25.543 20.7958 25.4998 20.8727 25.4228C20.9496 25.3459 20.9928 25.2416 20.9928 25.1328C20.9928 25.024 20.9496 24.9197 20.8727 24.8428C20.7958 24.7659 20.6914 24.7227 20.5827 24.7227Z" fill="#ED4445"/>
<path d="M23.0295 15.7924L21.8283 16.9936L21.4629 16.6282C21.4248 16.5901 21.3796 16.5599 21.3298 16.5392C21.2801 16.5186 21.2267 16.508 21.1729 16.508C21.119 16.508 21.0657 16.5186 21.0159 16.5392C20.9661 16.5599 20.9209 16.5901 20.8828 16.6282C20.8447 16.6662 20.8145 16.7115 20.7939 16.7612C20.7733 16.811 20.7627 16.8643 20.7627 16.9182C20.7627 16.9721 20.7733 17.0254 20.7939 17.0752C20.8145 17.1249 20.8447 17.1701 20.8828 17.2082L21.5383 17.8637C21.5764 17.9018 21.6216 17.932 21.6714 17.9526C21.7212 17.9732 21.7745 17.9838 21.8284 17.9838C21.8822 17.9838 21.9356 17.9732 21.9853 17.9526C22.0351 17.932 22.0803 17.9018 22.1184 17.8637L23.6097 16.3723C23.6867 16.2954 23.7299 16.1911 23.7299 16.0823C23.7299 15.9735 23.6867 15.8692 23.6097 15.7923C23.5328 15.7153 23.4285 15.6721 23.3197 15.6721C23.2109 15.6721 23.1066 15.7153 23.0296 15.7923L23.0295 15.7924ZM23.0295 23.3656L21.8283 24.5668L21.4629 24.2013C21.4248 24.1633 21.3796 24.133 21.3298 24.1124C21.2801 24.0918 21.2267 24.0812 21.1729 24.0812C21.119 24.0812 21.0657 24.0918 21.0159 24.1124C20.9661 24.133 20.9209 24.1633 20.8828 24.2013C20.8447 24.2394 20.8145 24.2846 20.7939 24.3344C20.7733 24.3842 20.7627 24.4375 20.7627 24.4914C20.7627 24.5452 20.7733 24.5986 20.7939 24.6483C20.8145 24.6981 20.8447 24.7433 20.8828 24.7814L21.5383 25.4368C21.5764 25.4749 21.6216 25.5052 21.6714 25.5258C21.7212 25.5464 21.7745 25.557 21.8284 25.557C21.8822 25.557 21.9356 25.5464 21.9853 25.5258C22.0351 25.5052 22.0803 25.4749 22.1184 25.4368L23.6097 23.9455C23.6867 23.8686 23.7299 23.7643 23.7299 23.6555C23.7299 23.5467 23.6867 23.4424 23.6097 23.3654C23.5328 23.2885 23.4285 23.2453 23.3197 23.2453C23.2109 23.2453 23.1066 23.2885 23.0296 23.3654L23.0295 23.3656ZM27.2374 16.2851H24.6613C24.5525 16.2851 24.4482 16.3283 24.3713 16.4052C24.2944 16.4821 24.2512 16.5865 24.2512 16.6952C24.2512 16.804 24.2944 16.9084 24.3713 16.9853C24.4482 17.0622 24.5525 17.1054 24.6613 17.1054H27.2374C27.3462 17.1054 27.4505 17.0622 27.5275 16.9853C27.6044 16.9084 27.6476 16.804 27.6476 16.6952C27.6476 16.5865 27.6044 16.4821 27.5275 16.4052C27.4505 16.3283 27.3462 16.2851 27.2374 16.2851ZM27.2374 20.0351H24.6613C24.5525 20.0351 24.4482 20.0783 24.3713 20.1552C24.2944 20.2321 24.2512 20.3365 24.2512 20.4452C24.2512 20.554 24.2944 20.6584 24.3713 20.7353C24.4482 20.8122 24.5525 20.8554 24.6613 20.8554H27.2374C27.3462 20.8554 27.4505 20.8122 27.5275 20.7353C27.6044 20.6584 27.6476 20.554 27.6476 20.4452C27.6476 20.3365 27.6044 20.2321 27.5275 20.1552C27.4505 20.0783 27.3462 20.0351 27.2374 20.0351ZM27.2374 23.7851H24.6613C24.5525 23.7851 24.4482 23.8283 24.3713 23.9052C24.2944 23.9821 24.2512 24.0865 24.2512 24.1952C24.2512 24.304 24.2944 24.4084 24.3713 24.4853C24.4482 24.5622 24.5525 24.6054 24.6613 24.6054H27.2374C27.3462 24.6054 27.4505 24.5622 27.5275 24.4853C27.6044 24.4084 27.6476 24.304 27.6476 24.1952C27.6476 24.0865 27.6044 23.9821 27.5275 23.9052C27.4505 23.8283 27.3462 23.7851 27.2374 23.7851Z" fill="#ED4445"/>
</svg>
