<svg width="30" height="30" viewBox="0 0 30 30" fill="none" xmlns="http://www.w3.org/2000/svg">
<path d="M15.0003 7.96875C13.6096 7.96875 12.2502 8.38113 11.0939 9.15373C9.93765 9.92633 9.03644 11.0245 8.50426 12.3093C7.97208 13.594 7.83284 15.0078 8.10414 16.3717C8.37544 17.7357 9.0451 18.9885 10.0284 19.9718C11.0118 20.9552 12.2646 21.6248 13.6286 21.8961C14.9925 22.1674 16.4062 22.0282 17.691 21.496C18.9758 20.9638 20.074 20.0626 20.8466 18.9064C21.6192 17.7501 22.0315 16.3906 22.0315 15C22.0315 13.1352 21.2907 11.3468 19.9721 10.0282C18.6535 8.70954 16.8651 7.96875 15.0003 7.96875ZM12.5675 9.41719C12.1689 9.96148 11.853 10.5617 11.63 11.1984C11.2394 11.125 10.8529 11.0312 10.4722 10.9172C11.0551 10.2729 11.7697 9.76134 12.5675 9.41719ZM9.88622 11.7188C10.3732 11.8873 10.8713 12.022 11.3768 12.1219C11.1833 12.9114 11.0718 13.7188 11.044 14.5312H8.92997C9.00931 13.5287 9.33803 12.5619 9.88622 11.7188ZM9.88622 18.3188C9.34465 17.4738 9.02242 16.5071 8.94872 15.5063H11.0628C11.0892 16.325 11.2008 17.1387 11.3956 17.9344C10.8851 18.015 10.3807 18.1309 9.88622 18.2812V18.3188ZM10.4909 19.1016C10.8717 18.9876 11.2581 18.8937 11.6487 18.8203C11.8717 19.457 12.1876 20.0573 12.5862 20.6016C11.7867 20.2519 11.072 19.7339 10.4909 19.0828V19.1016ZM14.5315 21.0094C13.7534 20.7516 13.0643 19.8797 12.5956 18.6656C13.2382 18.5864 13.8843 18.5395 14.5315 18.525V21.0094ZM14.5315 17.5687C13.7882 17.5842 13.0464 17.6421 12.3097 17.7422C12.1188 16.9984 12.0088 16.2362 11.9815 15.4688H14.5315V17.5687ZM14.5315 14.5312H11.9815C12.0088 13.7638 12.1188 13.0016 12.3097 12.2578C13.0464 12.3579 13.7882 12.4158 14.5315 12.4313V14.5312ZM14.5315 11.4938C13.8843 11.4793 13.2382 11.4323 12.5956 11.3531C13.0643 10.1203 13.7534 9.24844 14.5315 9.00937V11.4938ZM19.5097 10.9125C19.1292 11.0287 18.7427 11.1241 18.3518 11.1984C18.128 10.5621 17.8121 9.96199 17.4143 9.41719C18.2109 9.76137 18.9252 10.2711 19.5097 10.9125ZM15.469 8.99063C16.2472 9.24844 16.9362 10.1203 17.405 11.3344C16.7626 11.4157 16.1164 11.4627 15.469 11.475V8.99063ZM15.469 12.4313C16.2124 12.4156 16.9542 12.3577 17.6909 12.2578C17.8811 13.0017 17.9911 13.7639 18.019 14.5312H15.469V12.4313ZM15.469 15.4688H18.019C17.9918 16.2362 17.8818 16.9984 17.6909 17.7422C16.9542 17.6421 16.2124 17.5842 15.469 17.5687V15.4688ZM15.469 21.0094V18.5062C16.1163 18.5207 16.7624 18.5677 17.405 18.6469C16.9362 19.8797 16.2472 20.7516 15.469 21.0094ZM17.4331 20.5828C17.8317 20.0385 18.1476 19.4383 18.3706 18.8016C18.7612 18.875 19.1477 18.9688 19.5284 19.0828C18.9455 19.7271 18.2309 20.2387 17.4331 20.5828ZM20.1143 18.2812C19.6273 18.1127 19.1293 17.978 18.6237 17.8781C18.8173 17.0886 18.9288 16.2812 18.9565 15.4688H21.094C21.0077 16.4734 20.6708 17.4404 20.1143 18.2812ZM21.0518 14.5312H18.9565C18.9298 13.711 18.8182 12.8957 18.6237 12.0984C19.1291 12.0079 19.6273 11.881 20.1143 11.7188C20.6708 12.5596 21.0077 13.5266 21.094 14.5312H21.0518ZM1.65966 23.5922L3.81122 27.4172C3.85211 27.4893 3.91139 27.5493 3.98304 27.5911C4.05468 27.6328 4.13612 27.6548 4.21904 27.6548C4.30195 27.6548 4.38339 27.6328 4.45503 27.5911C4.52668 27.5493 4.58596 27.4893 4.62685 27.4172L6.77841 23.5922C7.16567 22.9165 7.26865 22.1147 7.06471 21.3631C6.86076 20.6114 6.36659 19.9716 5.69091 19.5844C5.01523 19.1971 4.21339 19.0941 3.46178 19.2981C2.71017 19.502 2.07036 19.9962 1.6831 20.6719C1.42276 21.1136 1.28351 21.6162 1.27939 22.1289C1.27528 22.6416 1.40644 23.1463 1.65966 23.5922ZM2.49404 21.1453C2.75759 20.6853 3.19309 20.3489 3.70471 20.21C4.21633 20.0711 4.76218 20.1411 5.22216 20.4047C5.68215 20.6682 6.01859 21.1037 6.15749 21.6154C6.29638 22.127 6.22635 22.6728 5.96279 23.1328L4.21904 26.25L2.47529 23.1328C2.30323 22.8292 2.21435 22.4855 2.21765 22.1365C2.22094 21.7876 2.31628 21.4456 2.49404 21.1453Z" fill="#ED4445"/>
<path d="M4.21875 22.9688C4.73652 22.9688 5.15625 22.549 5.15625 22.0312C5.15625 21.5135 4.73652 21.0938 4.21875 21.0938C3.70098 21.0938 3.28125 21.5135 3.28125 22.0312C3.28125 22.549 3.70098 22.9688 4.21875 22.9688Z" fill="#ED4445"/>
<path d="M4.21875 29.5312C6.09375 29.5312 7.5 28.725 7.5 27.6562C7.4808 27.3679 7.38337 27.0904 7.21818 26.8533C7.05299 26.6163 6.8263 26.4287 6.5625 26.3109L6.09375 27.1265C6.39375 27.2953 6.5625 27.4922 6.5625 27.6562C6.5625 28.0406 5.64844 28.5937 4.21875 28.5937C2.78906 28.5937 1.875 28.0406 1.875 27.6562C1.875 27.4922 2.05312 27.2953 2.34375 27.1265L1.875 26.3109C1.6112 26.4287 1.38451 26.6163 1.21932 26.8533C1.05413 27.0904 0.9567 27.3679 0.9375 27.6562C0.9375 28.725 2.34375 29.5312 4.21875 29.5312ZM18.8438 28.0453L18.5766 27.1453C18.2906 27.2297 17.9953 27.3047 17.7047 27.3656L17.9016 28.3031C18.2156 28.214 18.5344 28.125 18.8438 28.0453ZM1.60312 13.0969L2.54062 13.2187C2.57812 12.9234 2.62969 12.6234 2.69062 12.3281L1.75312 12.1406C1.69687 12.4594 1.64531 12.7781 1.60312 13.0969ZM20.2687 26.5125C19.9922 26.639 19.7156 26.7515 19.4344 26.8594L19.7625 27.7359C20.0625 27.6234 20.3625 27.4969 20.6578 27.3656L20.2687 26.5125ZM16.8141 27.5297C16.5187 27.5719 16.2187 27.6 15.9187 27.6234L15.9844 28.5609C16.3078 28.5609 16.6312 28.5 16.95 28.4531L16.8141 27.5297ZM15 27.6562C14.6953 27.6562 14.3953 27.6234 14.1047 27.6L14.0203 28.5375C14.3297 28.5656 14.6437 28.5844 14.9812 28.5984L15 27.6562ZM28.5937 15V14.9484H27.6562V15C27.6562 15.3 27.6562 15.6047 27.6234 15.9047L28.5609 15.9703C28.5937 15.6469 28.5937 15.3234 28.5937 15ZM10.5844 26.8453L10.2703 27.7265C10.575 27.8344 10.8844 27.9328 11.2078 28.0172L11.4609 27.1125C11.1516 27.0328 10.8609 26.9437 10.5844 26.8453ZM12.3281 27.3281L12.1312 28.2656C12.4406 28.3312 12.7594 28.3875 13.0687 28.4344L13.2047 27.4969C12.9141 27.4453 12.6187 27.389 12.3281 27.3281ZM21.0937 26.1047L21.5625 26.9297C21.8437 26.775 22.1203 26.6062 22.3922 26.4328L21.8859 25.6453C21.5953 25.8094 21.3328 25.964 21.0937 26.1047ZM12.075 1.76717C11.7516 1.8328 11.4422 1.91248 11.1375 1.99686L11.3906 2.90155C11.6766 2.82186 11.9719 2.74686 12.2719 2.68123L12.075 1.76717ZM15.8578 2.37186L15.9234 1.43436C15.6187 1.40623 15.3141 1.40623 15 1.40623H14.9484L15 2.34373C15.2906 2.34373 15.5766 2.35311 15.8578 2.37186ZM3.52031 7.64998L4.31719 8.14686C4.47656 7.88904 4.64531 7.63592 4.82344 7.39686L4.06406 6.84373C3.87187 7.10623 3.69375 7.37811 3.52031 7.64998ZM16.875 1.53748L16.7437 2.47498C17.0437 2.51717 17.3437 2.56873 17.6344 2.62967L17.8266 1.71561C17.5312 1.63592 17.2078 1.57967 16.875 1.53748ZM5.98594 6.02811L5.32031 5.36717C5.09531 5.59686 4.875 5.83592 4.66406 6.08436L5.37656 6.68905C5.57344 6.46405 5.775 6.23905 5.98594 6.02811ZM13.9781 1.47186C13.65 1.50467 13.3359 1.54217 13.0406 1.59373L13.1812 2.53123C13.4766 2.48905 13.7766 2.45155 14.0859 2.42342L13.9781 1.47186ZM10.2141 2.29217C9.90938 2.39998 9.60938 2.52186 9.31406 2.64842L9.68906 3.50623C9.96094 3.38905 10.2422 3.27655 10.5281 3.17342L10.2141 2.29217ZM8.4375 3.06561C8.15156 3.2203 7.87031 3.37967 7.59844 3.53436L8.09531 4.32655C8.34844 4.16717 8.61094 4.01717 8.87344 3.8578L8.4375 3.06561ZM27.3703 20.625L26.5172 20.2359C26.3906 20.5125 26.2547 20.7844 26.1141 21.0422L26.9344 21.5109C27.1031 21.2328 27.2484 20.9375 27.3703 20.625ZM1.98281 11.1984L2.8875 11.4469C2.96719 11.1562 3.06094 10.8656 3.15937 10.5844L2.27344 10.275C2.16562 10.5797 2.07187 10.889 1.98281 11.1984ZM23.9531 23.9484L24.6141 24.6094C24.8437 24.3797 25.0828 24.1406 25.275 23.9015L24.5672 23.2828C24.375 23.5125 24.1641 23.7328 23.9531 23.9484ZM2.625 9.37498L3.4875 9.74998C3.60469 9.47342 3.73594 9.20154 3.87187 8.93436L3.04219 8.49842C2.89219 8.78436 2.75156 9.07498 2.625 9.37498ZM28.4578 16.9312L27.5203 16.8C27.4781 17.1 27.4219 17.3953 27.3609 17.6906L28.2984 17.8875C28.3547 17.5734 28.4109 17.25 28.4578 16.9312ZM28.5562 13.9687C28.5328 13.65 28.4953 13.3265 28.4484 13.0078L27.5109 13.1437C27.5578 13.439 27.5906 13.7437 27.6094 14.039L28.5562 13.9687ZM28.0453 18.8297L27.15 18.5625C27.0656 18.8531 26.9672 19.139 26.8641 19.4203L27.7406 19.7484C27.8531 19.4437 27.9562 19.1344 28.0453 18.8297ZM6.79219 4.09686C6.53437 4.28905 6.27656 4.49061 6.03281 4.70155L6.64687 5.41405C6.87187 5.21717 7.10625 5.02967 7.35 4.85155L6.79219 4.09686ZM27.1312 11.3812C27.2156 11.6719 27.2953 11.9625 27.3562 12.2531L28.2937 12.0515C28.2234 11.7375 28.1391 11.4234 28.05 11.114L27.1312 11.3812ZM1.47656 15H2.41406C2.41406 14.7094 2.41406 14.414 2.44219 14.1234L1.50469 14.0625C1.48594 14.3719 1.47656 14.6859 1.47656 15ZM1.50937 15.9937C1.50937 16.3172 1.56563 16.6406 1.60781 16.9594L2.54531 16.8328C2.50781 16.5328 2.475 16.2328 2.45625 15.9328L1.50937 15.9937ZM23.2922 24.5625C23.0672 24.7594 22.8234 24.9469 22.5891 25.1297L23.1516 25.8797C23.4094 25.6828 23.6625 25.4812 23.9062 25.2703L23.2922 24.5625ZM25.1344 22.5844L25.8844 23.1422C26.0766 22.8844 26.2641 22.6172 26.4375 22.35L25.65 21.839C25.4906 22.0922 25.3125 22.3406 25.1344 22.5844ZM29.5312 3.04217C29.5463 2.92267 29.5148 2.80196 29.4432 2.70508C29.3716 2.60821 29.2655 2.54259 29.1469 2.52186L28.7578 2.46092C27.3976 2.22922 26.1456 1.57287 25.1812 0.585921C25.1377 0.541986 25.0858 0.507114 25.0287 0.483316C24.9716 0.459518 24.9103 0.447266 24.8484 0.447266C24.7866 0.447266 24.7253 0.459518 24.6682 0.483316C24.611 0.507114 24.5592 0.541986 24.5156 0.585921C23.5513 1.57287 22.2993 2.22922 20.9391 2.46092L20.55 2.52186C20.4305 2.54044 20.3229 2.60446 20.2495 2.70055C20.1761 2.79663 20.1427 2.91735 20.1562 3.03748C20.3005 4.27345 20.7051 5.46481 21.3434 6.53297C21.9817 7.60114 22.8392 8.52184 23.8594 9.23436L24.5672 9.75467C24.6476 9.8129 24.7445 9.84409 24.8437 9.84373C24.9473 9.84341 25.0479 9.8088 25.1297 9.7453L26.0156 9.06092C26.9788 8.34922 27.7871 7.44906 28.3915 6.41518C28.9959 5.3813 29.3836 4.2353 29.5312 3.04686V3.04217ZM25.4391 8.3203L24.8344 8.78905L24.4125 8.47498C22.6926 7.27273 21.5208 5.43653 21.1547 3.3703C22.527 3.13096 23.8048 2.51231 24.8437 1.58436C25.8826 2.51231 27.1605 3.13096 28.5328 3.3703C28.1648 5.35221 27.0593 7.12099 25.4391 8.3203Z" fill="#ED4445"/>
<path d="M23.9061 4.75781L23.2451 5.41875L24.2389 6.4125C24.2824 6.45644 24.3343 6.49131 24.3914 6.51511C24.4485 6.5389 24.5098 6.55116 24.5717 6.55116C24.6336 6.55116 24.6948 6.5389 24.752 6.51511C24.8091 6.49131 24.8609 6.45644 24.9045 6.4125L26.892 4.425L26.2498 3.75L24.5904 5.40469L23.9061 4.75781Z" fill="#ED4445"/>
</svg>
